<svg width="209" height="61" viewBox="0 0 209 61" fill="none" xmlns="http://www.w3.org/2000/svg">
<path d="M7.73734 59.7998H201.171C205.077 59.7998 208.266 56.6752 208.266 52.8798V7.55405C208.266 3.75867 205.077 0.634021 201.171 0.634021H7.73734C3.83073 0.634021 0.641726 3.75867 0.641726 7.55405V52.8798C0.641726 56.6752 3.83073 59.7998 7.73734 59.7998Z" fill="white" stroke="#6A6B6C" stroke-width="1.02431"/>
<mask id="path-2-inside-1_4989_14704" fill="white">
<path d="M201.171 1.21034C204.753 1.21034 207.668 4.05642 207.668 7.55405V52.8798C207.668 56.3774 204.753 59.2235 201.171 59.2235H7.73734C4.15495 59.2235 1.23991 56.3774 1.23991 52.8798V7.55405C1.23991 4.05642 4.15495 1.21034 7.73734 1.21034H201.171ZM201.171 -0.000235853H7.73734C3.48374 -0.000235853 0 3.40108 0 7.55405V52.8798C0 57.0328 3.48374 60.4341 7.73734 60.4341H201.171C205.424 60.4341 208.908 57.0328 208.908 52.8798V7.55405C208.908 3.40108 205.424 -0.000235853 201.171 -0.000235853Z"/>
</mask>
<path d="M201.171 1.21034C204.753 1.21034 207.668 4.05642 207.668 7.55405V52.8798C207.668 56.3774 204.753 59.2235 201.171 59.2235H7.73734C4.15495 59.2235 1.23991 56.3774 1.23991 52.8798V7.55405C1.23991 4.05642 4.15495 1.21034 7.73734 1.21034H201.171ZM201.171 -0.000235853H7.73734C3.48374 -0.000235853 0 3.40108 0 7.55405V52.8798C0 57.0328 3.48374 60.4341 7.73734 60.4341H201.171C205.424 60.4341 208.908 57.0328 208.908 52.8798V7.55405C208.908 3.40108 205.424 -0.000235853 201.171 -0.000235853Z" fill="#A6A6A6"/>
<path d="M201.171 -0.0581825C205.447 -0.0581825 208.952 3.34124 208.952 7.55405H206.385C206.385 4.77159 204.059 2.47886 201.171 2.47886V-0.0581825ZM208.952 7.55405V52.8798H206.385V7.55405H208.952ZM208.952 52.8798C208.952 57.0926 205.447 60.492 201.171 60.492V57.955C204.059 57.955 206.385 55.6623 206.385 52.8798H208.952ZM201.171 60.492H7.73734V57.955H201.171V60.492ZM7.73734 60.492C3.46098 60.492 -0.0435427 57.0926 -0.0435427 52.8798H2.52336C2.52336 55.6623 4.84893 57.955 7.73734 57.955V60.492ZM-0.0435427 52.8798V7.55405H2.52336V52.8798H-0.0435427ZM-0.0435427 7.55405C-0.0435427 3.34124 3.46098 -0.0581825 7.73734 -0.0581825V2.47886C4.84893 2.47886 2.52336 4.77159 2.52336 7.55405H-0.0435427ZM7.73734 -0.0581825H201.171V2.47886H7.73734V-0.0581825ZM201.171 1.26828H7.73734V-1.26876H201.171V1.26828ZM7.73734 1.26828C4.17771 1.26828 1.28345 4.11626 1.28345 7.55405H-1.28345C-1.28345 2.68591 2.78976 -1.26876 7.73734 -1.26876V1.26828ZM1.28345 7.55405V52.8798H-1.28345V7.55405H1.28345ZM1.28345 52.8798C1.28345 56.3176 4.17771 59.1656 7.73734 59.1656V61.7026C2.78976 61.7026 -1.28345 57.7479 -1.28345 52.8798H1.28345ZM7.73734 59.1656H201.171V61.7026H7.73734V59.1656ZM201.171 59.1656C204.73 59.1656 207.625 56.3176 207.625 52.8798H210.192C210.192 57.7479 206.118 61.7026 201.171 61.7026V59.1656ZM207.625 52.8798V7.55405H210.192V52.8798H207.625ZM207.625 7.55405C207.625 4.11626 204.73 1.26828 201.171 1.26828V-1.26876C206.118 -1.26876 210.192 2.68591 210.192 7.55405H207.625Z" fill="#6A6B6C" mask="url(#path-2-inside-1_4989_14704)"/>
<path d="M73.3766 15.4769C73.3766 16.7384 72.9897 17.7488 72.2276 18.5024C71.3514 19.3957 70.2101 19.8451 68.8116 19.8451C67.475 19.8451 66.3337 19.3881 65.3975 18.4873C64.4593 17.5732 63.9912 16.4514 63.9912 15.1086C63.9912 13.7658 64.4593 12.644 65.3975 11.7375C66.3337 10.8291 67.475 10.3721 68.8116 10.3721C69.477 10.3721 70.1114 10.5062 70.7169 10.7555C71.3204 11.0066 71.8117 11.3466 72.1676 11.7658L71.3591 12.5628C70.7382 11.847 69.8929 11.4939 68.8116 11.4939C67.8367 11.4939 66.9914 11.8263 66.2737 12.4967C65.5638 13.169 65.2079 14.0397 65.2079 15.1086C65.2079 16.1775 65.5638 17.0557 66.2737 17.7281C66.9914 18.3909 67.8367 18.7309 68.8116 18.7309C69.8464 18.7309 70.7169 18.3909 71.4036 17.7205C71.8562 17.2767 72.1135 16.6648 72.1812 15.8829H68.8116V14.7913H73.307C73.3611 15.0274 73.3766 15.2559 73.3766 15.4769Z" fill="#6A6B6C" stroke="#6A6B6C" stroke-width="0.16389" stroke-miterlimit="10"/>
<path d="M80.5094 11.692H76.2867V14.5626H80.0935V15.6542H76.2867V18.5248H80.5094V19.6372H75.0913V10.5796H80.5094V11.692Z" fill="#6A6B6C" stroke="#6A6B6C" stroke-width="0.16389" stroke-miterlimit="10"/>
<path d="M85.5462 19.6372H84.3508V11.692H81.7607V10.5796H88.1382V11.692H85.5462V19.6372Z" fill="#6A6B6C" stroke="#6A6B6C" stroke-width="0.16389" stroke-miterlimit="10"/>
<path d="M92.7524 19.6372V10.5796H93.9459V19.6372H92.7524Z" fill="#6A6B6C" stroke="#6A6B6C" stroke-width="0.16389" stroke-miterlimit="10"/>
<path d="M99.2337 19.6372H98.048V11.692H95.4482V10.5796H101.833V11.692H99.2337V19.6372Z" fill="#6A6B6C" stroke="#6A6B6C" stroke-width="0.16389" stroke-miterlimit="10"/>
<path d="M113.91 18.4722C112.995 19.3881 111.861 19.8451 110.509 19.8451C109.149 19.8451 108.016 19.3881 107.101 18.4722C106.188 17.5581 105.733 16.4363 105.733 15.1086C105.733 13.7809 106.188 12.6591 107.101 11.7451C108.016 10.8291 109.149 10.3721 110.509 10.3721C111.854 10.3721 112.987 10.8291 113.902 11.7526C114.823 12.6742 115.277 13.7885 115.277 15.1086C115.277 16.4363 114.823 17.5581 113.91 18.4722ZM107.985 17.7129C108.674 18.3909 109.511 18.7309 110.509 18.7309C111.5 18.7309 112.345 18.3909 113.026 17.7129C113.713 17.035 114.061 16.1643 114.061 15.1086C114.061 14.0529 113.713 13.1823 113.026 12.5043C112.345 11.8263 111.5 11.4863 110.509 11.4863C109.511 11.4863 108.674 11.8263 107.985 12.5043C107.298 13.1823 106.95 14.0529 106.95 15.1086C106.95 16.1643 107.298 17.035 107.985 17.7129Z" fill="#6A6B6C" stroke="#6A6B6C" stroke-width="0.16389" stroke-miterlimit="10"/>
<path d="M116.956 19.6372V10.5796H118.406L122.917 17.624H122.969L122.917 15.8827V10.5796H124.111V19.6372H122.865L118.141 12.2453H118.089L118.141 13.9941V19.6372H116.956Z" fill="#6A6B6C" stroke="#6A6B6C" stroke-width="0.16389" stroke-miterlimit="10"/>
<path d="M105.438 32.865C101.804 32.865 98.8346 35.5657 98.8346 39.2918C98.8346 42.9878 101.804 45.7167 105.438 45.7167C109.081 45.7167 112.05 42.9878 112.05 39.2918C112.05 35.5657 109.081 32.865 105.438 32.865ZM105.438 43.1861C103.444 43.1861 101.728 41.5789 101.728 39.2918C101.728 36.9745 103.444 35.3957 105.438 35.3957C107.433 35.3957 109.156 36.9745 109.156 39.2918C109.156 41.5789 107.433 43.1861 105.438 43.1861ZM91.0295 32.865C87.3872 32.865 84.4257 35.5657 84.4257 39.2918C84.4257 42.9878 87.3872 45.7167 91.0295 45.7167C94.67 45.7167 97.6334 42.9878 97.6334 39.2918C97.6334 35.5657 94.67 32.865 91.0295 32.865ZM91.0295 43.1861C89.0333 43.1861 87.3118 41.5789 87.3118 39.2918C87.3118 36.9745 89.0333 35.3957 91.0295 35.3957C93.0238 35.3957 94.7396 36.9745 94.7396 39.2918C94.7396 41.5789 93.0238 43.1861 91.0295 43.1861ZM73.8836 34.8348V37.5657H80.5629C80.3675 39.0916 79.8452 40.2134 79.0444 40.9953C78.0695 41.9396 76.551 42.9878 73.8836 42.9878C69.7731 42.9878 66.5544 39.7489 66.5544 35.7356C66.5544 31.7224 69.7731 28.4835 73.8836 28.4835C76.1061 28.4835 77.7233 29.3315 78.9167 30.4306L80.8878 28.5062C79.2185 26.95 76.9979 25.7545 73.8836 25.7545C68.2469 25.7545 63.5098 30.2323 63.5098 35.7356C63.5098 41.2389 68.2469 45.7167 73.8836 45.7167C76.9302 45.7167 79.2185 44.7422 81.0174 42.9141C82.8608 41.1143 83.4353 38.5836 83.4353 36.5402C83.4353 35.9056 83.3812 35.322 83.2845 34.8348H73.8836ZM143.995 36.9519C143.452 35.5147 141.775 32.865 138.359 32.865C134.974 32.865 132.155 35.4694 132.155 39.2918C132.155 42.8914 134.945 45.7167 138.684 45.7167C141.707 45.7167 143.452 43.9169 144.17 42.8688L141.926 41.4089C141.177 42.4778 140.158 43.1861 138.684 43.1861C137.22 43.1861 136.169 42.5307 135.496 41.2389L144.299 37.6828L143.995 36.9519ZM135.02 39.0916C134.945 36.6138 136.991 35.3447 138.457 35.3447C139.606 35.3447 140.581 35.9056 140.906 36.7083L135.02 39.0916ZM127.865 45.3258H130.759V26.4401H127.865V45.3258ZM123.126 34.2965H123.029C122.379 33.5449 121.139 32.865 119.569 32.865C116.273 32.865 113.259 35.6903 113.259 39.3126C113.259 42.9141 116.273 45.7167 119.569 45.7167C121.139 45.7167 122.379 45.0312 123.029 44.2569H123.126V45.1785C123.126 47.6355 121.782 48.9556 119.613 48.9556C117.845 48.9556 116.748 47.7092 116.296 46.661L113.779 47.6865C114.505 49.39 116.425 51.4863 119.613 51.4863C123.006 51.4863 125.869 49.5373 125.869 44.7951V33.2559H123.126V34.2965ZM119.816 43.1861C117.822 43.1861 116.153 41.5562 116.153 39.3126C116.153 37.0482 117.822 35.3957 119.816 35.3957C121.782 35.3957 123.331 37.0482 123.331 39.3126C123.331 41.5562 121.782 43.1861 119.816 43.1861ZM157.544 26.4401H150.622V45.3258H153.509V38.17H157.544C160.749 38.17 163.892 35.9056 163.892 32.3041C163.892 28.7045 160.741 26.4401 157.544 26.4401ZM157.619 35.543H153.509V29.0671H157.619C159.774 29.0671 161.004 30.814 161.004 32.3041C161.004 33.7659 159.774 35.543 157.619 35.543ZM175.459 32.8291C173.374 32.8291 171.206 33.7281 170.314 35.7205L172.875 36.7687C173.426 35.7205 174.44 35.3806 175.512 35.3806C177.009 35.3806 178.527 36.2588 178.55 37.8093V38.0076C178.028 37.713 176.91 37.2767 175.535 37.2767C172.776 37.2767 169.966 38.7592 169.966 41.526C169.966 44.0567 172.225 45.6865 174.765 45.6865C176.707 45.6865 177.779 44.831 178.452 43.8357H178.55V45.2956H181.338V38.051C181.338 34.7026 178.777 32.8291 175.459 32.8291ZM175.111 43.1785C174.167 43.1785 172.852 42.7215 172.852 41.5789C172.852 40.1171 174.492 39.5562 175.912 39.5562C177.183 39.5562 177.779 39.8301 178.55 40.1908C178.324 41.9396 176.782 43.1785 175.111 43.1785ZM191.493 33.2427L188.176 41.4297H188.077L184.647 33.2427H181.535L186.688 44.6837L183.748 51.0501H186.764L194.704 33.2427H191.493ZM165.478 45.3258H168.372V26.4401H165.478V45.3258Z" fill="#6A6B6C"/>
<path d="M16.1493 11.3899C15.6947 11.8545 15.4316 12.5778 15.4316 13.5146V46.9272C15.4316 47.8639 15.6947 48.5872 16.1493 49.0518L16.2615 49.1538L35.4385 30.4381V29.9961L16.2615 11.2804L16.1493 11.3899Z" fill="url(#paint0_linear_4989_14704)"/>
<path d="M41.8203 36.6797L35.4351 30.438V29.996L41.828 23.7543L41.9712 23.8355L49.5422 28.0414C51.7028 29.2349 51.7028 31.1991 49.5422 32.4002L41.9712 36.5985L41.8203 36.6797Z" fill="url(#paint1_linear_4989_14704)"/>
<path d="M41.9728 36.5984L35.4366 30.2169L16.1475 49.0516C16.8651 49.7881 18.0354 49.8769 19.3662 49.1404L41.9728 36.5984Z" fill="url(#paint2_linear_4989_14704)"/>
<path d="M41.9728 23.8353L19.3662 11.2933C18.0354 10.5643 16.8651 10.6531 16.1475 11.3896L35.4366 30.2168L41.9728 23.8353Z" fill="url(#paint3_linear_4989_14704)"/>
<defs>
<linearGradient id="paint0_linear_4989_14704" x1="33.7358" y1="47.2751" x2="8.38722" y2="21.3124" gradientUnits="userSpaceOnUse">
<stop stop-color="#00A0FF"/>
<stop offset="0.0066" stop-color="#00A1FF"/>
<stop offset="0.2601" stop-color="#00BEFF"/>
<stop offset="0.5122" stop-color="#00D2FF"/>
<stop offset="0.7604" stop-color="#00DFFF"/>
<stop offset="1" stop-color="#00E3FF"/>
</linearGradient>
<linearGradient id="paint1_linear_4989_14704" x1="52.3557" y1="30.2149" x2="14.9118" y2="30.2149" gradientUnits="userSpaceOnUse">
<stop stop-color="#FFE000"/>
<stop offset="0.4087" stop-color="#FFBD00"/>
<stop offset="0.7754" stop-color="#FFA500"/>
<stop offset="1" stop-color="#FF9C00"/>
</linearGradient>
<linearGradient id="paint2_linear_4989_14704" x1="38.4186" y1="26.7478" x2="4.04391" y2="-8.45986" gradientUnits="userSpaceOnUse">
<stop stop-color="#FF3A44"/>
<stop offset="1" stop-color="#C31162"/>
</linearGradient>
<linearGradient id="paint3_linear_4989_14704" x1="11.292" y1="60.1678" x2="26.6418" y2="44.4461" gradientUnits="userSpaceOnUse">
<stop stop-color="#32A071"/>
<stop offset="0.0685" stop-color="#2DA771"/>
<stop offset="0.4762" stop-color="#15CF74"/>
<stop offset="0.8009" stop-color="#06E775"/>
<stop offset="1" stop-color="#00F076"/>
</linearGradient>
</defs>
</svg>
