<svg width="209" height="61" viewBox="0 0 209 61" fill="none" xmlns="http://www.w3.org/2000/svg">
<path d="M201.18 60.4343H7.74662C3.49302 60.4343 0.00927734 57.033 0.00927734 52.88V7.5543C0.00927734 3.40133 3.49302 8.28774e-06 7.74662 8.28774e-06H201.18C205.434 8.28774e-06 208.917 3.40133 208.917 7.5543V52.88C208.917 57.033 205.434 60.4343 201.18 60.4343Z" fill="black"/>
<path d="M201.18 1.21058C204.763 1.21058 207.678 4.05666 207.678 7.5543V52.88C207.678 56.3777 204.763 59.2238 201.18 59.2238H7.74662C4.16423 59.2238 1.24919 56.3777 1.24919 52.88V7.5543C1.24919 4.05666 4.16423 1.21058 7.74662 1.21058H201.18ZM201.18 8.28774e-06H7.74662C3.49302 8.28774e-06 0.00927734 3.40133 0.00927734 7.5543V52.88C0.00927734 57.033 3.49302 60.4343 7.74662 60.4343H201.18C205.434 60.4343 208.917 57.033 208.917 52.88V7.5543C208.917 3.40133 205.434 8.28774e-06 201.18 8.28774e-06Z" fill="#A6A6A6"/>
<path d="M73.3859 15.4769C73.3859 16.7384 72.999 17.7488 72.2369 18.5024C71.3606 19.3957 70.2194 19.8451 68.8209 19.8451C67.4842 19.8451 66.343 19.3881 65.4067 18.4873C64.4686 17.5732 64.0005 16.4514 64.0005 15.1086C64.0005 13.7658 64.4686 12.644 65.4067 11.7375C66.343 10.8291 67.4842 10.3721 68.8209 10.3721C69.4863 10.3721 70.1207 10.5062 70.7262 10.7555C71.3297 11.0066 71.821 11.3466 72.1769 11.7658L71.3684 12.5628C70.7474 11.847 69.9021 11.4939 68.8209 11.4939C67.8459 11.4939 67.0006 11.8263 66.283 12.4967C65.5731 13.169 65.2172 14.0397 65.2172 15.1086C65.2172 16.1775 65.5731 17.0557 66.283 17.7281C67.0006 18.3909 67.8459 18.7309 68.8209 18.7309C69.8557 18.7309 70.7262 18.3909 71.4129 17.7205C71.8655 17.2767 72.1228 16.6648 72.1905 15.8829H68.8209V14.7913H73.3162C73.3704 15.0274 73.3859 15.2559 73.3859 15.4769Z" fill="white" stroke="white" stroke-width="0.16389" stroke-miterlimit="10"/>
<path d="M80.5187 11.6923H76.296V14.5629H80.1028V15.6545H76.296V18.5251H80.5187V19.6375H75.1006V10.5799H80.5187V11.6923Z" fill="white" stroke="white" stroke-width="0.16389" stroke-miterlimit="10"/>
<path d="M85.5555 19.6375H84.3601V11.6923H81.77V10.5799H88.1475V11.6923H85.5555V19.6375Z" fill="white" stroke="white" stroke-width="0.16389" stroke-miterlimit="10"/>
<path d="M92.7617 19.6375V10.5799H93.9552V19.6375H92.7617Z" fill="white" stroke="white" stroke-width="0.16389" stroke-miterlimit="10"/>
<path d="M99.2425 19.6375H98.0568V11.6923H95.457V10.5799H101.842V11.6923H99.2425V19.6375Z" fill="white" stroke="white" stroke-width="0.16389" stroke-miterlimit="10"/>
<path d="M113.919 18.4722C113.004 19.3881 111.871 19.8451 110.519 19.8451C109.159 19.8451 108.025 19.3881 107.11 18.4722C106.197 17.5581 105.743 16.4363 105.743 15.1086C105.743 13.7809 106.197 12.6591 107.11 11.7451C108.025 10.8291 109.159 10.3721 110.519 10.3721C111.863 10.3721 112.996 10.8291 113.911 11.7526C114.832 12.6742 115.287 13.7885 115.287 15.1086C115.287 16.4363 114.832 17.5581 113.919 18.4722ZM107.994 17.7129C108.683 18.3909 109.52 18.7309 110.519 18.7309C111.509 18.7309 112.354 18.3909 113.035 17.7129C113.722 17.035 114.07 16.1643 114.07 15.1086C114.07 14.0529 113.722 13.1823 113.035 12.5043C112.354 11.8263 111.509 11.4863 110.519 11.4863C109.52 11.4863 108.683 11.8263 107.994 12.5043C107.308 13.1823 106.959 14.0529 106.959 15.1086C106.959 16.1643 107.308 17.035 107.994 17.7129Z" fill="white" stroke="white" stroke-width="0.16389" stroke-miterlimit="10"/>
<path d="M116.965 19.6375V10.5799H118.416L122.926 17.6243H122.979L122.926 15.883V10.5799H124.12V19.6375H122.874L118.151 12.2456H118.098L118.151 13.9944V19.6375H116.965Z" fill="white" stroke="white" stroke-width="0.16389" stroke-miterlimit="10"/>
<path d="M105.447 32.8651C101.813 32.8651 98.8434 35.5658 98.8434 39.2919C98.8434 42.9879 101.813 45.7169 105.447 45.7169C109.09 45.7169 112.059 42.9879 112.059 39.2919C112.059 35.5658 109.09 32.8651 105.447 32.8651ZM105.447 43.1862C103.453 43.1862 101.737 41.579 101.737 39.2919C101.737 36.9747 103.453 35.3958 105.447 35.3958C107.441 35.3958 109.165 36.9747 109.165 39.2919C109.165 41.579 107.441 43.1862 105.447 43.1862ZM91.0383 32.8651C87.396 32.8651 84.4345 35.5658 84.4345 39.2919C84.4345 42.9879 87.396 45.7169 91.0383 45.7169C94.6787 45.7169 97.6421 42.9879 97.6421 39.2919C97.6421 35.5658 94.6787 32.8651 91.0383 32.8651ZM91.0383 43.1862C89.0421 43.1862 87.3205 41.579 87.3205 39.2919C87.3205 36.9747 89.0421 35.3958 91.0383 35.3958C93.0326 35.3958 94.7484 36.9747 94.7484 39.2919C94.7484 41.579 93.0326 43.1862 91.0383 43.1862ZM73.8924 34.8349V37.5658H80.5716C80.3763 39.0918 79.854 40.2136 79.0532 40.9954C78.0783 41.9397 76.5598 42.9879 73.8924 42.9879C69.7819 42.9879 66.5632 39.749 66.5632 35.7358C66.5632 31.7225 69.7819 28.4836 73.8924 28.4836C76.1149 28.4836 77.732 29.3316 78.9255 30.4308L80.8966 28.5063C79.2273 26.9501 77.0067 25.7547 73.8924 25.7547C68.2557 25.7547 63.5186 30.2325 63.5186 35.7358C63.5186 41.2391 68.2557 45.7169 73.8924 45.7169C76.939 45.7169 79.2273 44.7424 81.0262 42.9142C82.8696 41.1144 83.4441 38.5837 83.4441 36.5403C83.4441 35.9057 83.39 35.3222 83.2933 34.8349H73.8924ZM144.004 36.952C143.461 35.5148 141.784 32.8651 138.368 32.8651C134.983 32.8651 132.164 35.4695 132.164 39.2919C132.164 42.8916 134.954 45.7169 138.693 45.7169C141.716 45.7169 143.461 43.9171 144.178 42.8689L141.935 41.409C141.186 42.478 140.167 43.1862 138.693 43.1862C137.228 43.1862 136.178 42.5308 135.505 41.2391L144.308 37.6829L144.004 36.952ZM135.029 39.0918C134.954 36.6139 137 35.3448 138.466 35.3448C139.615 35.3448 140.59 35.9057 140.915 36.7084L135.029 39.0918ZM127.874 45.3259H130.768V26.4402H127.874V45.3259ZM123.135 34.2967H123.038C122.388 33.545 121.148 32.8651 119.578 32.8651C116.281 32.8651 113.268 35.6904 113.268 39.3127C113.268 42.9142 116.281 45.7169 119.578 45.7169C121.148 45.7169 122.388 45.0313 123.038 44.257H123.135V45.1786C123.135 47.6357 121.79 48.9558 119.622 48.9558C117.854 48.9558 116.757 47.7093 116.305 46.6611L113.788 47.6866C114.513 49.3901 116.434 51.4865 119.622 51.4865C123.015 51.4865 125.878 49.5374 125.878 44.7952V33.2561H123.135V34.2967ZM119.825 43.1862C117.831 43.1862 116.161 41.5563 116.161 39.3127C116.161 37.0483 117.831 35.3958 119.825 35.3958C121.79 35.3958 123.34 37.0483 123.34 39.3127C123.34 41.5563 121.79 43.1862 119.825 43.1862ZM157.552 26.4402H150.631V45.3259H153.517V38.1701H157.552C160.758 38.1701 163.901 35.9057 163.901 32.3042C163.901 28.7046 160.75 26.4402 157.552 26.4402ZM157.628 35.5431H153.517V29.0672H157.628C159.783 29.0672 161.013 30.8141 161.013 32.3042C161.013 33.766 159.783 35.5431 157.628 35.5431ZM175.468 32.8292C173.383 32.8292 171.215 33.7282 170.323 35.7207L172.884 36.7688C173.435 35.7207 174.449 35.3807 175.52 35.3807C177.018 35.3807 178.536 36.2589 178.559 37.8094V38.0077C178.037 37.7131 176.919 37.2768 175.544 37.2768C172.785 37.2768 169.975 38.7594 169.975 41.5261C169.975 44.0568 172.234 45.6866 174.774 45.6866C176.716 45.6866 177.787 44.8311 178.461 43.8358H178.559V45.2957H181.347V38.0512C181.347 34.7027 178.786 32.8292 175.468 32.8292ZM175.12 43.1786C174.176 43.1786 172.861 42.7216 172.861 41.579C172.861 40.1172 174.501 39.5563 175.921 39.5563C177.192 39.5563 177.787 39.8302 178.559 40.1909C178.333 41.9397 176.791 43.1786 175.12 43.1786ZM191.502 33.2428L188.184 41.4298H188.086L184.656 33.2428H181.544L186.697 44.6838L183.757 51.0502H186.772L194.713 33.2428H191.502ZM165.487 45.3259H168.381V26.4402H165.487V45.3259Z" fill="white"/>
<path d="M16.1586 11.39C15.704 11.8546 15.4409 12.5779 15.4409 13.5147V46.9273C15.4409 47.864 15.704 48.5874 16.1586 49.0519L16.2707 49.1539L35.4477 30.4382V29.9962L16.2707 11.2805L16.1586 11.39Z" fill="url(#paint0_linear_4897_30264)"/>
<path d="M41.8296 36.68L35.4443 30.4383V29.9963L41.8373 23.7546L41.9805 23.8358L49.5514 28.0417C51.7121 29.2352 51.7121 31.1994 49.5514 32.4005L41.9805 36.5988L41.8296 36.68Z" fill="url(#paint1_linear_4897_30264)"/>
<path d="M41.982 36.5988L35.4459 30.2173L16.1567 49.052C16.8744 49.7886 18.0446 49.8773 19.3755 49.1408L41.982 36.5988Z" fill="url(#paint2_linear_4897_30264)"/>
<path d="M41.982 23.8357L19.3755 11.2937C18.0446 10.5647 16.8744 10.6535 16.1567 11.39L35.4459 30.2172L41.982 23.8357Z" fill="url(#paint3_linear_4897_30264)"/>
<defs>
<linearGradient id="paint0_linear_4897_30264" x1="33.7451" y1="47.2753" x2="8.39649" y2="21.3125" gradientUnits="userSpaceOnUse">
<stop stop-color="#00A0FF"/>
<stop offset="0.0066" stop-color="#00A1FF"/>
<stop offset="0.2601" stop-color="#00BEFF"/>
<stop offset="0.5122" stop-color="#00D2FF"/>
<stop offset="0.7604" stop-color="#00DFFF"/>
<stop offset="1" stop-color="#00E3FF"/>
</linearGradient>
<linearGradient id="paint1_linear_4897_30264" x1="52.365" y1="30.2152" x2="14.921" y2="30.2152" gradientUnits="userSpaceOnUse">
<stop stop-color="#FFE000"/>
<stop offset="0.4087" stop-color="#FFBD00"/>
<stop offset="0.7754" stop-color="#FFA500"/>
<stop offset="1" stop-color="#FF9C00"/>
</linearGradient>
<linearGradient id="paint2_linear_4897_30264" x1="38.4279" y1="26.7482" x2="4.05319" y2="-8.45943" gradientUnits="userSpaceOnUse">
<stop stop-color="#FF3A44"/>
<stop offset="1" stop-color="#C31162"/>
</linearGradient>
<linearGradient id="paint3_linear_4897_30264" x1="11.3012" y1="60.1682" x2="26.6511" y2="44.4465" gradientUnits="userSpaceOnUse">
<stop stop-color="#32A071"/>
<stop offset="0.0685" stop-color="#2DA771"/>
<stop offset="0.4762" stop-color="#15CF74"/>
<stop offset="0.8009" stop-color="#06E775"/>
<stop offset="1" stop-color="#00F076"/>
</linearGradient>
</defs>
</svg>
