<svg width="461" height="299" viewBox="0 0 461 299" fill="none" xmlns="http://www.w3.org/2000/svg">
<rect width="410.387" height="293.396" rx="23.9992" transform="matrix(0.999722 0.0235606 0.170589 0.985342 0.0800781 0.0541992)" fill="white"/>
<circle cx="23.9992" cy="23.9992" r="23.9992" transform="matrix(0.999722 0.0235606 0.170589 0.985342 187.365 39.7944)" fill="#006FCF"/>
<path d="M212.707 68.853L206.851 63.8046L205.436 65.4316L213.286 72.1991L225.225 58.3499L223.245 56.6429L212.707 68.853Z" fill="white"/>
<path d="M120.539 127.714L117.716 127.648L115.201 113.122L110.187 113.004L109.779 110.648L122.619 110.951L123.027 113.306L118.025 113.188L120.539 127.714ZM138.014 121.732C138.198 122.795 138.221 123.734 138.082 124.551C137.944 125.368 137.654 126.055 137.214 126.612C136.772 127.161 136.199 127.577 135.493 127.86C134.786 128.134 133.956 128.26 133.003 128.238C132.113 128.217 131.272 128.051 130.479 127.741C129.685 127.424 128.966 126.977 128.322 126.403C127.685 125.82 127.146 125.114 126.707 124.283C126.267 123.452 125.956 122.506 125.772 121.444C125.528 120.035 125.567 118.848 125.89 117.882C126.219 116.908 126.8 116.174 127.633 115.68C128.465 115.186 129.518 114.954 130.791 114.984C131.986 115.012 133.085 115.295 134.088 115.832C135.091 116.37 135.935 117.137 136.621 118.135C137.307 119.132 137.772 120.331 138.014 121.732ZM128.607 121.511C128.768 122.442 129.019 123.241 129.36 123.909C129.709 124.576 130.157 125.093 130.702 125.458C131.246 125.816 131.901 126.004 132.667 126.022C133.432 126.04 134.027 125.882 134.451 125.547C134.874 125.204 135.141 124.704 135.253 124.048C135.365 123.391 135.34 122.597 135.179 121.665C135.018 120.734 134.768 119.942 134.43 119.29C134.09 118.631 133.649 118.126 133.106 117.776C132.561 117.418 131.903 117.23 131.13 117.212C129.989 117.185 129.223 117.542 128.83 118.284C128.437 119.026 128.363 120.102 128.607 121.511ZM146.448 115.353C147.987 115.39 149.317 115.973 150.438 117.103C151.567 118.234 152.321 119.892 152.699 122.078C152.95 123.525 152.942 124.74 152.677 125.723C152.418 126.698 151.942 127.431 151.249 127.92C150.562 128.403 149.704 128.631 148.673 128.607C148.017 128.592 147.432 128.494 146.918 128.313C146.405 128.132 145.953 127.903 145.563 127.625C145.171 127.34 144.83 127.033 144.54 126.704L144.376 126.7C144.468 127.009 144.563 127.353 144.659 127.731C144.762 128.101 144.84 128.44 144.894 128.748L145.795 133.956L143.03 133.89L139.836 115.439L142.085 115.492L142.778 117.268L142.907 117.271C143.086 116.915 143.321 116.587 143.611 116.287C143.909 115.987 144.289 115.755 144.751 115.589C145.218 115.416 145.784 115.338 146.448 115.353ZM146.094 117.553C145.336 117.535 144.753 117.671 144.344 117.96C143.942 118.242 143.687 118.677 143.578 119.264C143.478 119.852 143.497 120.593 143.636 121.485L143.702 121.866C143.866 122.813 144.103 123.62 144.413 124.286C144.729 124.946 145.148 125.454 145.668 125.811C146.196 126.161 146.858 126.345 147.654 126.364C148.326 126.38 148.849 126.212 149.224 125.86C149.606 125.509 149.849 125.001 149.952 124.336C150.055 123.672 150.027 122.885 149.87 121.977C149.631 120.599 149.196 119.523 148.565 118.75C147.941 117.976 147.117 117.577 146.094 117.553ZM160.726 123.486L160.328 121.189L166.373 121.331L166.771 123.629L160.726 123.486ZM187.042 112.469L188.933 123.392C189.137 124.57 189.066 125.619 188.719 126.538C188.381 127.458 187.751 128.179 186.83 128.701C185.908 129.216 184.678 129.456 183.14 129.419C180.945 129.368 179.176 128.763 177.832 127.604C176.494 126.438 175.662 124.912 175.336 123.026L173.452 112.149L176.264 112.215L178.105 122.85C178.349 124.258 178.865 125.305 179.652 125.991C180.44 126.676 181.502 127.035 182.837 127.066C183.759 127.088 184.481 126.948 185.005 126.646C185.534 126.336 185.883 125.877 186.049 125.268C186.223 124.651 186.233 123.904 186.081 123.026L184.242 112.403L187.042 112.469ZM198.224 116.573C199.763 116.61 201.093 117.193 202.214 118.323C203.343 119.454 204.097 121.112 204.476 123.299C204.726 124.746 204.719 125.961 204.453 126.943C204.194 127.919 203.718 128.651 203.025 129.141C202.339 129.623 201.48 129.852 200.449 129.827C199.793 129.812 199.208 129.714 198.695 129.533C198.181 129.352 197.729 129.123 197.339 128.846C196.947 128.56 196.606 128.253 196.316 127.925L196.152 127.921C196.244 128.229 196.339 128.573 196.435 128.951C196.538 129.321 196.616 129.66 196.67 129.968L197.571 135.176L194.807 135.111L191.612 116.659L193.861 116.712L194.554 118.488L194.683 118.491C194.862 118.135 195.097 117.807 195.387 117.507C195.686 117.207 196.065 116.975 196.527 116.809C196.995 116.637 197.56 116.558 198.224 116.573ZM197.87 118.773C197.112 118.755 196.529 118.891 196.12 119.18C195.718 119.462 195.463 119.897 195.355 120.485C195.254 121.073 195.273 121.813 195.412 122.705L195.478 123.086C195.642 124.033 195.879 124.84 196.189 125.507C196.505 126.166 196.924 126.674 197.445 127.031C197.972 127.381 198.634 127.565 199.43 127.584C200.102 127.6 200.625 127.432 201 127.08C201.383 126.729 201.625 126.221 201.728 125.557C201.831 124.892 201.803 124.106 201.646 123.197C201.408 121.819 200.972 120.744 200.341 119.97C199.717 119.196 198.893 118.797 197.87 118.773ZM229.892 125.714C230.065 126.715 229.964 127.571 229.59 128.283C229.223 128.995 228.608 129.533 227.745 129.896C226.891 130.259 225.823 130.425 224.542 130.395C223.917 130.38 223.313 130.332 222.731 130.249C222.149 130.166 221.593 130.054 221.063 129.911C220.539 129.76 220.053 129.584 219.606 129.382L219.154 126.772C219.901 127.089 220.726 127.381 221.628 127.647C222.528 127.906 223.423 128.046 224.314 128.067C225.04 128.084 225.625 128.006 226.07 127.832C226.521 127.651 226.833 127.39 227.008 127.049C227.181 126.701 227.227 126.292 227.145 125.822C227.059 125.322 226.849 124.895 226.515 124.542C226.182 124.19 225.713 123.864 225.11 123.566C224.512 123.261 223.771 122.933 222.886 122.582C222.285 122.346 221.702 122.079 221.137 121.782C220.58 121.486 220.069 121.14 219.604 120.746C219.139 120.351 218.744 119.89 218.42 119.361C218.101 118.824 217.88 118.198 217.756 117.482C217.591 116.528 217.68 115.717 218.023 115.051C218.375 114.384 218.941 113.88 219.722 113.538C220.51 113.197 221.471 113.039 222.603 113.066C223.501 113.087 224.361 113.199 225.182 113.402C226.01 113.606 226.837 113.886 227.661 114.243L227.156 116.45C226.404 116.149 225.681 115.906 224.988 115.721C224.303 115.536 223.616 115.435 222.929 115.419C222.336 115.405 221.847 115.482 221.464 115.649C221.081 115.817 220.808 116.059 220.645 116.377C220.489 116.688 220.448 117.063 220.524 117.502C220.61 117.994 220.803 118.413 221.103 118.757C221.411 119.094 221.846 119.407 222.409 119.696C222.981 119.986 223.706 120.31 224.584 120.668C225.596 121.075 226.467 121.498 227.196 121.937C227.933 122.376 228.529 122.896 228.983 123.497C229.435 124.09 229.738 124.829 229.892 125.714ZM242.562 117.86L244.775 130.642L242.608 130.591L241.935 128.862L241.783 128.858C241.585 129.29 241.301 129.648 240.93 129.93C240.558 130.205 240.126 130.406 239.634 130.532C239.144 130.666 238.614 130.727 238.044 130.713C237.067 130.69 236.204 130.509 235.453 130.169C234.708 129.822 234.093 129.302 233.607 128.608C233.122 127.914 232.785 127.025 232.597 125.939L231.152 117.591L233.916 117.656L235.274 125.496C235.446 126.489 235.777 127.237 236.269 127.739C236.768 128.242 237.451 128.503 238.318 128.523C239.154 128.543 239.788 128.389 240.222 128.062C240.655 127.735 240.916 127.243 241.004 126.586C241.101 125.929 241.065 125.119 240.899 124.157L239.797 117.795L242.562 117.86ZM253.748 131.083C252.522 131.055 251.419 130.795 250.44 130.304C249.46 129.813 248.644 129.077 247.992 128.096C247.34 127.115 246.885 125.877 246.626 124.384C246.357 122.829 246.403 121.565 246.763 120.592C247.124 119.619 247.732 118.909 248.588 118.462C249.451 118.015 250.493 117.805 251.711 117.834C252.484 117.852 253.196 117.946 253.848 118.114C254.506 118.276 255.072 118.469 255.547 118.695L255.103 120.846C254.593 120.643 254.077 120.469 253.554 120.327C253.032 120.184 252.54 120.107 252.079 120.097C251.322 120.079 250.718 120.229 250.267 120.548C249.825 120.868 249.535 121.351 249.399 122C249.27 122.648 249.289 123.458 249.457 124.428C249.62 125.367 249.882 126.163 250.244 126.815C250.604 127.46 251.059 127.954 251.609 128.296C252.157 128.631 252.79 128.807 253.509 128.824C254.219 128.841 254.841 128.771 255.374 128.615C255.907 128.459 256.4 128.252 256.853 127.994L257.261 130.35C256.817 130.615 256.325 130.807 255.786 130.924C255.247 131.05 254.568 131.103 253.748 131.083ZM265.434 131.359C264.208 131.33 263.105 131.07 262.126 130.579C261.146 130.089 260.33 129.353 259.678 128.371C259.026 127.39 258.571 126.153 258.312 124.659C258.043 123.104 258.089 121.84 258.449 120.868C258.81 119.895 259.418 119.185 260.274 118.737C261.138 118.29 262.179 118.081 263.397 118.109C264.17 118.128 264.882 118.221 265.534 118.39C266.192 118.551 266.758 118.744 267.233 118.97L266.789 121.122C266.279 120.918 265.763 120.745 265.24 120.602C264.718 120.46 264.226 120.383 263.765 120.372C263.008 120.354 262.404 120.505 261.953 120.824C261.511 121.143 261.221 121.627 261.085 122.275C260.956 122.924 260.975 123.733 261.143 124.703C261.306 125.642 261.568 126.438 261.93 127.09C262.291 127.735 262.745 128.229 263.295 128.572C263.843 128.906 264.476 129.082 265.195 129.099C265.905 129.116 266.527 129.046 267.06 128.89C267.593 128.734 268.086 128.527 268.54 128.27L268.947 130.625C268.503 130.891 268.011 131.082 267.472 131.2C266.933 131.325 266.254 131.378 265.434 131.359ZM274.767 118.377C275.923 118.405 276.955 118.663 277.864 119.152C278.773 119.641 279.525 120.322 280.12 121.194C280.714 122.067 281.115 123.104 281.323 124.305L281.575 125.76L272.918 125.555C273.163 126.796 273.665 127.758 274.421 128.443C275.185 129.128 276.149 129.484 277.313 129.511C278.141 129.531 278.869 129.471 279.499 129.333C280.134 129.187 280.777 128.968 281.427 128.677L281.809 130.882C281.212 131.167 280.59 131.371 279.943 131.494C279.295 131.617 278.503 131.667 277.565 131.645C276.292 131.615 275.13 131.346 274.077 130.838C273.031 130.323 272.151 129.574 271.436 128.591C270.73 127.608 270.252 126.397 270.002 124.958C269.754 123.526 269.79 122.316 270.109 121.326C270.427 120.337 270.987 119.592 271.786 119.089C272.586 118.587 273.58 118.349 274.767 118.377ZM275.121 120.421C274.254 120.401 273.599 120.661 273.156 121.203C272.721 121.745 272.549 122.549 272.64 123.617L278.545 123.756C278.426 123.117 278.219 122.549 277.923 122.051C277.635 121.554 277.256 121.161 276.786 120.874C276.324 120.587 275.769 120.436 275.121 120.421ZM293.524 128.157C293.669 128.996 293.584 129.699 293.27 130.267C292.956 130.835 292.427 131.259 291.683 131.54C290.944 131.814 290.001 131.938 288.853 131.911C287.947 131.889 287.155 131.806 286.476 131.659C285.807 131.521 285.16 131.314 284.537 131.039L284.131 128.695C284.797 128.994 285.531 129.257 286.333 129.482C287.142 129.709 287.89 129.83 288.577 129.846C289.483 129.867 290.111 129.744 290.462 129.476C290.811 129.201 290.945 128.828 290.863 128.359C290.815 128.082 290.691 127.833 290.489 127.614C290.295 127.387 289.958 127.153 289.481 126.912C289.01 126.663 288.328 126.363 287.435 126.013C286.559 125.67 285.812 125.33 285.194 124.994C284.576 124.657 284.083 124.259 283.715 123.798C283.346 123.329 283.1 122.737 282.976 122.021C282.78 120.889 283.084 120.041 283.889 119.478C284.7 118.907 285.855 118.639 287.355 118.674C288.152 118.693 288.915 118.791 289.646 118.97C290.384 119.14 291.118 119.384 291.849 119.7L291.336 121.723C290.707 121.455 290.081 121.234 289.459 121.058C288.844 120.875 288.232 120.776 287.623 120.762C286.912 120.745 286.388 120.84 286.051 121.047C285.721 121.254 285.591 121.557 285.66 121.957C285.712 122.258 285.846 122.514 286.061 122.726C286.277 122.938 286.621 123.153 287.095 123.371C287.576 123.59 288.237 123.862 289.08 124.188C289.903 124.499 290.625 124.823 291.243 125.159C291.868 125.488 292.372 125.887 292.757 126.357C293.141 126.826 293.397 127.426 293.524 128.157ZM304.975 128.427C305.121 129.266 305.036 129.969 304.722 130.537C304.408 131.104 303.879 131.529 303.134 131.81C302.396 132.084 301.453 132.208 300.305 132.181C299.399 132.159 298.607 132.075 297.928 131.929C297.258 131.791 296.612 131.584 295.989 131.308L295.583 128.965C296.249 129.264 296.983 129.526 297.784 129.752C298.594 129.978 299.342 130.1 300.029 130.116C300.935 130.137 301.563 130.014 301.914 129.746C302.263 129.471 302.396 129.098 302.315 128.629C302.267 128.352 302.142 128.103 301.941 127.884C301.746 127.657 301.41 127.423 300.933 127.182C300.462 126.933 299.78 126.633 298.887 126.283C298.011 125.94 297.264 125.6 296.646 125.264C296.027 124.927 295.534 124.528 295.167 124.067C294.798 123.599 294.551 123.006 294.427 122.291C294.232 121.159 294.536 120.311 295.341 119.748C296.152 119.177 297.307 118.909 298.807 118.944C299.603 118.963 300.367 119.061 301.098 119.239C301.835 119.41 302.57 119.654 303.301 119.97L302.788 121.993C302.158 121.725 301.533 121.504 300.911 121.328C300.296 121.145 299.684 121.046 299.075 121.032C298.364 121.015 297.84 121.11 297.502 121.317C297.173 121.523 297.042 121.827 297.112 122.227C297.164 122.528 297.297 122.784 297.513 122.996C297.729 123.208 298.073 123.423 298.546 123.641C299.028 123.859 299.689 124.132 300.531 124.458C301.355 124.769 302.076 125.093 302.695 125.429C303.319 125.758 303.824 126.157 304.209 126.626C304.593 127.095 304.849 127.696 304.975 128.427ZM312.966 121.578L309.815 121.503L311.67 132.219L308.917 132.154L307.062 121.438L304.941 121.388L304.715 120.084L306.698 119.337L306.544 118.448C306.356 117.362 306.379 116.504 306.612 115.874C306.852 115.243 307.273 114.797 307.873 114.535C308.48 114.265 309.236 114.141 310.142 114.163C310.736 114.177 311.287 114.24 311.797 114.351C312.305 114.455 312.737 114.573 313.095 114.704L312.736 116.742C312.456 116.651 312.145 116.567 311.805 116.49C311.464 116.406 311.106 116.359 310.731 116.35C310.106 116.335 309.679 116.517 309.449 116.895C309.226 117.273 309.179 117.831 309.307 118.57L309.457 119.436L312.608 119.511L312.966 121.578ZM325.888 119.824L328.101 132.606L325.933 132.555L325.261 130.825L325.108 130.822C324.911 131.254 324.627 131.612 324.255 131.894C323.883 132.169 323.451 132.37 322.96 132.496C322.469 132.63 321.939 132.691 321.369 132.677C320.393 132.654 319.529 132.473 318.778 132.133C318.034 131.786 317.418 131.265 316.933 130.572C316.447 129.878 316.11 128.988 315.922 127.903L314.477 119.555L317.242 119.62L318.599 127.46C318.771 128.453 319.103 129.201 319.594 129.703C320.093 130.205 320.776 130.467 321.643 130.487C322.479 130.507 323.114 130.353 323.547 130.026C323.98 129.699 324.241 129.207 324.33 128.55C324.426 127.893 324.391 127.083 324.224 126.121L323.123 119.758L325.888 119.824ZM334.573 132.758L331.809 132.693L328.698 114.727L331.463 114.792L334.573 132.758Z" fill="#006FCF"/>
<path d="M95.7447 158.524L98.0636 152.257L99.6715 152.294L96.7344 159.944L97.5845 164.855L96.0909 164.819L95.2528 159.978L89.6112 152.057L91.2454 152.096L95.7447 158.524ZM110.888 160.425C111.023 161.204 111.041 161.897 110.942 162.504C110.843 163.111 110.637 163.621 110.323 164.034C110.01 164.446 109.597 164.758 109.085 164.97C108.578 165.177 107.979 165.272 107.288 165.256C106.644 165.241 106.033 165.117 105.456 164.885C104.884 164.647 104.366 164.313 103.9 163.882C103.441 163.452 103.05 162.928 102.727 162.311C102.41 161.694 102.184 160.996 102.049 160.216C101.869 159.177 101.895 158.298 102.127 157.579C102.357 156.854 102.77 156.309 103.366 155.944C103.967 155.572 104.727 155.398 105.647 155.419C106.525 155.44 107.326 155.652 108.049 156.054C108.778 156.456 109.387 157.028 109.878 157.77C110.373 158.506 110.709 159.391 110.888 160.425ZM103.561 160.252C103.693 161.014 103.909 161.677 104.211 162.242C104.513 162.807 104.905 163.247 105.385 163.564C105.866 163.88 106.443 164.046 107.117 164.061C107.784 164.077 108.305 163.937 108.68 163.641C109.061 163.345 109.305 162.92 109.413 162.365C109.521 161.81 109.509 161.151 109.377 160.389C109.246 159.633 109.031 158.978 108.731 158.424C108.43 157.865 108.04 157.431 107.56 157.12C107.08 156.81 106.501 156.647 105.821 156.631C104.82 156.607 104.141 156.916 103.785 157.558C103.436 158.199 103.361 159.097 103.561 160.252ZM120.543 155.943L122.186 165.434L120.991 165.406L120.55 164.068L120.471 164.066C120.328 164.39 120.119 164.661 119.841 164.879C119.564 165.097 119.236 165.256 118.856 165.356C118.484 165.462 118.075 165.51 117.63 165.499C116.868 165.481 116.209 165.345 115.651 165.091C115.094 164.836 114.639 164.451 114.288 163.937C113.942 163.423 113.7 162.768 113.563 161.971L112.486 155.753L113.962 155.788L115.021 161.902C115.158 162.693 115.442 163.289 115.873 163.69C116.303 164.085 116.89 164.292 117.634 164.309C118.348 164.326 118.894 164.207 119.269 163.951C119.651 163.696 119.891 163.313 119.99 162.804C120.087 162.289 120.071 161.656 119.941 160.905L119.076 155.908L120.543 155.943ZM129.07 152.177L129.767 156.204C129.807 156.434 129.842 156.668 129.871 156.905C129.9 157.135 129.916 157.348 129.921 157.544L130.017 157.546C130.159 157.216 130.362 156.942 130.628 156.724C130.898 156.5 131.22 156.335 131.592 156.229C131.964 156.117 132.369 156.066 132.808 156.077C133.581 156.095 134.247 156.231 134.804 156.486C135.367 156.741 135.822 157.125 136.168 157.639C136.519 158.154 136.765 158.815 136.905 159.623L137.975 165.806L136.534 165.772L135.48 159.684C135.343 158.894 135.057 158.297 134.62 157.896C134.188 157.495 133.595 157.286 132.839 157.268C132.125 157.251 131.577 157.373 131.197 157.634C130.821 157.89 130.584 158.275 130.487 158.791C130.395 159.306 130.414 159.939 130.544 160.689L131.403 165.652L129.945 165.617L127.612 152.142L129.07 152.177ZM142.913 156.315C144.061 156.342 144.957 156.616 145.601 157.137C146.246 157.658 146.664 158.476 146.857 159.59L147.974 166.042L146.911 166.017L146.387 164.607L146.317 164.606C146.107 164.946 145.877 165.231 145.625 165.461C145.372 165.685 145.063 165.853 144.697 165.965C144.336 166.071 143.878 166.118 143.321 166.105C142.735 166.091 142.197 165.978 141.705 165.765C141.219 165.552 140.808 165.238 140.474 164.822C140.145 164.406 139.926 163.883 139.817 163.254C139.653 162.307 139.908 161.589 140.582 161.098C141.255 160.608 142.367 160.359 143.917 160.349L145.566 160.319L145.465 159.739C145.323 158.919 145.045 158.34 144.631 158.003C144.217 157.665 143.685 157.489 143.034 157.473C142.531 157.462 142.063 157.522 141.631 157.656C141.199 157.79 140.795 157.95 140.419 158.136L139.782 157.035C140.177 156.825 140.643 156.65 141.178 156.507C141.713 156.364 142.292 156.3 142.913 156.315ZM145.724 161.332L144.267 161.358C143.074 161.376 142.261 161.549 141.828 161.878C141.395 162.207 141.232 162.683 141.34 163.307C141.434 163.85 141.671 164.255 142.05 164.522C142.428 164.79 142.893 164.93 143.444 164.943C144.299 164.964 144.958 164.746 145.422 164.291C145.886 163.837 146.037 163.142 145.875 162.206L145.724 161.332ZM153.097 166.163L147.798 156.585L149.362 156.622L152.474 162.414C152.688 162.81 152.913 163.246 153.147 163.723C153.381 164.2 153.553 164.584 153.661 164.874L153.723 164.875C153.743 164.588 153.794 164.21 153.876 163.74C153.957 163.265 154.032 162.836 154.099 162.452L155.223 156.76L156.787 156.797L154.766 166.202L153.097 166.163ZM162.011 156.748C162.831 156.767 163.565 156.963 164.213 157.334C164.86 157.706 165.396 158.219 165.818 158.873C166.239 159.521 166.524 160.275 166.673 161.135L166.828 162.027L160.177 161.871C160.387 162.985 160.815 163.841 161.461 164.437C162.107 165.033 162.924 165.342 163.914 165.366C164.523 165.38 165.053 165.338 165.502 165.239C165.952 165.14 166.41 164.99 166.877 164.788L167.096 166.053C166.647 166.255 166.19 166.399 165.727 166.486C165.27 166.573 164.716 166.609 164.066 166.594C163.14 166.572 162.3 166.368 161.545 165.982C160.794 165.591 160.166 165.03 159.661 164.299C159.155 163.569 158.812 162.681 158.631 161.636C158.454 160.614 158.474 159.735 158.69 158.998C158.912 158.256 159.304 157.69 159.867 157.301C160.435 156.912 161.15 156.727 162.011 156.748ZM162.197 157.925C161.418 157.907 160.841 158.143 160.465 158.635C160.089 159.126 159.935 159.821 160.004 160.72L165.1 160.84C164.996 160.274 164.819 159.775 164.569 159.344C164.325 158.907 164.006 158.566 163.613 158.321C163.22 158.07 162.748 157.938 162.197 157.925ZM180.535 164.222C180.64 164.828 180.573 165.336 180.334 165.744C180.101 166.147 179.715 166.445 179.177 166.639C178.645 166.834 177.983 166.922 177.192 166.903C176.519 166.887 175.927 166.822 175.417 166.706C174.907 166.591 174.451 166.433 174.049 166.234L173.82 164.909C174.245 165.109 174.744 165.293 175.315 165.462C175.887 165.63 176.457 165.721 177.025 165.735C177.857 165.754 178.437 165.636 178.766 165.379C179.095 165.122 179.22 164.766 179.141 164.31C179.096 164.05 178.981 163.82 178.794 163.62C178.613 163.415 178.33 163.216 177.947 163.023C177.563 162.824 177.04 162.604 176.38 162.365C175.725 162.119 175.153 161.879 174.663 161.643C174.178 161.401 173.784 161.113 173.481 160.778C173.184 160.444 172.99 160.014 172.899 159.488C172.76 158.686 172.981 158.079 173.563 157.667C174.15 157.249 174.98 157.053 176.052 157.079C176.632 157.092 177.183 157.163 177.707 157.29C178.236 157.412 178.736 157.573 179.208 157.774L178.916 158.914C178.489 158.737 178.039 158.586 177.568 158.46C177.097 158.334 176.627 158.265 176.159 158.254C175.485 158.238 174.986 158.336 174.661 158.547C174.341 158.758 174.215 159.054 174.281 159.435C174.332 159.729 174.456 159.973 174.653 160.168C174.855 160.362 175.156 160.548 175.554 160.724C175.952 160.9 176.472 161.108 177.114 161.347C177.756 161.581 178.316 161.821 178.797 162.068C179.276 162.309 179.662 162.6 179.954 162.941C180.251 163.275 180.445 163.702 180.535 164.222ZM189.639 157.571L191.282 167.063L190.087 167.035L189.645 165.696L189.566 165.694C189.424 166.018 189.214 166.289 188.937 166.507C188.66 166.725 188.331 166.884 187.952 166.984C187.58 167.09 187.171 167.138 186.726 167.128C185.964 167.11 185.305 166.974 184.747 166.719C184.19 166.464 183.735 166.08 183.384 165.566C183.038 165.051 182.796 164.396 182.658 163.599L181.582 157.381L183.058 157.416L184.116 163.53C184.253 164.321 184.537 164.917 184.969 165.318C185.399 165.714 185.986 165.92 186.73 165.938C187.444 165.955 187.989 165.835 188.365 165.58C188.747 165.324 188.987 164.942 189.085 164.432C189.183 163.917 189.167 163.284 189.037 162.534L188.172 157.537L189.639 157.571ZM198.253 167.399C197.386 167.379 196.592 167.185 195.869 166.817C195.146 166.449 194.537 165.9 194.043 165.17C193.549 164.44 193.207 163.526 193.018 162.429C192.819 161.28 192.85 160.347 193.11 159.628C193.376 158.904 193.821 158.374 194.445 158.038C195.069 157.702 195.818 157.545 196.691 157.565C197.171 157.576 197.642 157.636 198.104 157.745C198.572 157.848 198.961 157.975 199.273 158.126L199.042 159.32C198.729 159.197 198.372 159.085 197.969 158.984C197.572 158.882 197.207 158.828 196.873 158.82C196.205 158.804 195.673 158.933 195.277 159.205C194.887 159.477 194.628 159.885 194.5 160.429C194.378 160.972 194.387 161.645 194.526 162.447C194.659 163.215 194.878 163.873 195.182 164.421C195.493 164.968 195.884 165.392 196.356 165.69C196.833 165.983 197.39 166.137 198.029 166.152C198.538 166.164 198.989 166.123 199.381 166.029C199.772 165.929 200.122 165.811 200.431 165.674L200.653 166.956C200.359 167.11 200.02 167.226 199.637 167.303C199.259 167.38 198.798 167.412 198.253 167.399ZM206.882 167.603C206.015 167.582 205.22 167.388 204.497 167.021C203.774 166.653 203.166 166.104 202.672 165.373C202.178 164.643 201.836 163.729 201.646 162.632C201.447 161.483 201.478 160.55 201.738 159.832C202.004 159.108 202.449 158.578 203.073 158.242C203.698 157.906 204.446 157.748 205.319 157.768C205.799 157.78 206.271 157.84 206.733 157.948C207.2 158.051 207.589 158.178 207.901 158.33L207.67 159.523C207.357 159.401 207 159.289 206.597 159.187C206.2 159.086 205.835 159.031 205.501 159.023C204.833 159.008 204.301 159.136 203.905 159.408C203.515 159.681 203.256 160.089 203.128 160.632C203.007 161.175 203.015 161.848 203.154 162.651C203.287 163.419 203.506 164.076 203.811 164.624C204.121 165.172 204.513 165.595 204.984 165.894C205.461 166.187 206.018 166.341 206.657 166.356C207.166 166.368 207.617 166.326 208.009 166.232C208.4 166.132 208.75 166.014 209.059 165.877L209.281 167.159C208.987 167.313 208.648 167.429 208.265 167.506C207.887 167.583 207.426 167.616 206.882 167.603ZM213.657 157.965C214.477 157.984 215.211 158.18 215.859 158.552C216.507 158.923 217.042 159.436 217.464 160.09C217.885 160.738 218.171 161.492 218.32 162.353L218.474 163.245L211.823 163.088C212.033 164.203 212.461 165.058 213.107 165.654C213.753 166.25 214.571 166.559 215.56 166.583C216.17 166.597 216.699 166.555 217.149 166.456C217.598 166.358 218.056 166.207 218.523 166.006L218.742 167.27C218.293 167.472 217.837 167.617 217.373 167.703C216.916 167.79 216.362 167.826 215.712 167.811C214.786 167.789 213.946 167.585 213.191 167.2C212.441 166.808 211.813 166.247 211.307 165.516C210.801 164.786 210.458 163.898 210.277 162.853C210.1 161.831 210.12 160.952 210.337 160.215C210.558 159.473 210.95 158.907 211.513 158.518C212.081 158.129 212.796 157.945 213.657 157.965ZM213.844 159.142C213.064 159.124 212.487 159.36 212.111 159.852C211.735 160.343 211.582 161.038 211.65 161.937L216.746 162.057C216.642 161.491 216.465 160.992 216.216 160.561C215.971 160.124 215.652 159.783 215.26 159.538C214.866 159.287 214.394 159.155 213.844 159.142ZM227.507 165.329C227.612 165.935 227.545 166.442 227.306 166.851C227.073 167.254 226.687 167.552 226.149 167.746C225.617 167.941 224.955 168.029 224.164 168.01C223.491 167.994 222.899 167.929 222.389 167.813C221.879 167.698 221.423 167.54 221.021 167.341L220.791 166.016C221.217 166.216 221.715 166.4 222.287 166.569C222.859 166.737 223.429 166.828 223.997 166.842C224.829 166.861 225.409 166.743 225.738 166.486C226.067 166.229 226.192 165.873 226.113 165.417C226.068 165.157 225.952 164.927 225.766 164.727C225.585 164.522 225.302 164.323 224.919 164.13C224.534 163.931 224.012 163.711 223.352 163.472C222.697 163.226 222.125 162.986 221.635 162.75C221.15 162.508 220.756 162.22 220.453 161.885C220.155 161.551 219.961 161.121 219.87 160.595C219.731 159.793 219.953 159.186 220.535 158.774C221.122 158.356 221.952 158.16 223.023 158.186C223.603 158.199 224.155 158.27 224.679 158.397C225.208 158.519 225.708 158.68 226.18 158.881L225.888 160.021C225.46 159.844 225.011 159.693 224.54 159.567C224.069 159.441 223.599 159.372 223.131 159.361C222.457 159.345 221.958 159.443 221.632 159.654C221.313 159.865 221.186 160.161 221.252 160.542C221.303 160.836 221.427 161.08 221.624 161.275C221.827 161.469 222.128 161.655 222.526 161.831C222.924 162.007 223.444 162.215 224.086 162.454C224.727 162.688 225.288 162.928 225.769 163.175C226.248 163.416 226.634 163.707 226.926 164.048C227.223 164.382 227.417 164.809 227.507 165.329ZM236.082 165.531C236.187 166.137 236.12 166.645 235.882 167.053C235.648 167.456 235.262 167.754 234.724 167.949C234.192 168.143 233.531 168.231 232.74 168.212C232.066 168.196 231.474 168.131 230.964 168.015C230.454 167.9 229.998 167.742 229.596 167.543L229.367 166.218C229.792 166.418 230.291 166.602 230.863 166.771C231.434 166.94 232.004 167.031 232.573 167.044C233.404 167.064 233.985 166.945 234.314 166.688C234.642 166.432 234.767 166.075 234.688 165.619C234.643 165.359 234.528 165.129 234.342 164.929C234.16 164.724 233.878 164.525 233.494 164.332C233.11 164.133 232.588 163.914 231.928 163.674C231.273 163.428 230.7 163.188 230.21 162.952C229.725 162.711 229.331 162.422 229.028 162.088C228.731 161.753 228.537 161.323 228.446 160.797C228.307 159.995 228.529 159.388 229.111 158.976C229.698 158.559 230.527 158.362 231.599 158.388C232.179 158.401 232.731 158.472 233.254 158.599C233.783 158.721 234.283 158.882 234.756 159.083L234.463 160.223C234.036 160.046 233.587 159.895 233.116 159.769C232.645 159.643 232.175 159.574 231.706 159.563C231.033 159.547 230.533 159.645 230.208 159.856C229.889 160.067 229.762 160.363 229.828 160.744C229.879 161.038 230.003 161.283 230.2 161.477C230.403 161.671 230.703 161.857 231.101 162.033C231.499 162.209 232.019 162.417 232.662 162.656C233.303 162.89 233.864 163.13 234.344 163.377C234.823 163.618 235.209 163.909 235.501 164.25C235.799 164.584 235.992 165.012 236.082 165.531ZM241.717 159.92L239.319 159.863L240.767 168.229L239.308 168.195L237.86 159.829L236.155 159.789L236.036 159.096L237.658 158.66L237.548 158.028C237.41 157.231 237.418 156.587 237.573 156.096C237.726 155.6 238.01 155.238 238.426 155.013C238.842 154.787 239.378 154.681 240.034 154.697C240.403 154.706 240.746 154.745 241.061 154.816C241.383 154.887 241.667 154.965 241.916 155.052L241.734 156.177C241.524 156.109 241.289 156.046 241.028 155.988C240.772 155.925 240.515 155.89 240.257 155.884C239.701 155.871 239.319 156.04 239.111 156.391C238.909 156.737 238.873 157.288 239.004 158.045L239.124 158.738L241.522 158.794L241.717 159.92ZM251.249 159.023L252.892 168.515L251.697 168.487L251.255 167.148L251.176 167.146C251.034 167.47 250.824 167.741 250.547 167.959C250.27 168.177 249.941 168.336 249.562 168.436C249.19 168.542 248.781 168.59 248.336 168.58C247.574 168.562 246.915 168.426 246.357 168.171C245.8 167.916 245.345 167.532 244.994 167.018C244.648 166.503 244.406 165.848 244.268 165.051L243.192 158.833L244.668 158.868L245.726 164.982C245.863 165.773 246.147 166.369 246.578 166.77C247.009 167.166 247.596 167.372 248.34 167.39C249.054 167.407 249.599 167.287 249.975 167.031C250.357 166.776 250.597 166.394 250.695 165.884C250.793 165.369 250.777 164.736 250.647 163.986L249.781 158.989L251.249 159.023ZM257.443 168.622L255.976 168.587L253.643 155.112L255.11 155.147L257.443 168.622ZM261.995 168.729L260.527 168.695L258.194 155.22L259.662 155.254L261.995 168.729ZM261.915 159.275L263.479 159.312L266.559 164.869C266.738 165.196 266.906 165.51 267.064 165.813C267.22 166.11 267.363 166.395 267.492 166.668C267.621 166.941 267.731 167.206 267.822 167.461L267.883 167.462C267.915 167.175 267.967 166.8 268.038 166.336C268.109 165.866 268.189 165.388 268.28 164.901L269.34 159.45L270.913 159.487L268.606 170.274C268.485 170.851 268.312 171.353 268.088 171.779C267.87 172.205 267.57 172.529 267.189 172.75C266.808 172.977 266.319 173.083 265.721 173.069C265.446 173.062 265.2 173.039 264.983 173C264.767 172.966 264.579 172.927 264.42 172.883L264.221 171.731C264.355 171.763 264.514 171.793 264.7 171.82C264.891 171.848 265.087 171.864 265.286 171.868C265.649 171.877 265.95 171.815 266.19 171.683C266.436 171.556 266.634 171.366 266.782 171.11C266.93 170.855 267.044 170.55 267.123 170.195L267.419 168.874L261.915 159.275ZM281.704 168.193C281.944 168.199 282.187 168.184 282.432 168.15C282.677 168.116 282.873 168.071 283.021 168.017L283.215 169.134C283.058 169.205 282.832 169.263 282.536 169.308C282.246 169.353 281.958 169.372 281.671 169.365C281.161 169.353 280.684 169.256 280.238 169.073C279.791 168.884 279.405 168.576 279.08 168.149C278.761 167.721 278.537 167.135 278.408 166.391L277.434 160.762L276.063 160.729L275.942 160.028L277.224 159.498L277.447 157.45L278.325 157.471L278.706 159.67L281.527 159.737L281.721 160.863L278.901 160.796L279.868 166.382C279.971 166.977 280.186 167.424 280.512 167.725C280.844 168.026 281.242 168.182 281.704 168.193ZM292.66 164.708C292.795 165.488 292.813 166.181 292.714 166.788C292.615 167.395 292.409 167.905 292.095 168.317C291.781 168.73 291.369 169.042 290.857 169.254C290.35 169.461 289.751 169.556 289.06 169.54C288.416 169.524 287.805 169.401 287.228 169.169C286.656 168.931 286.138 168.597 285.672 168.166C285.213 167.735 284.822 167.212 284.499 166.595C284.182 165.978 283.956 165.279 283.821 164.5C283.641 163.461 283.667 162.582 283.898 161.863C284.129 161.138 284.542 160.593 285.138 160.227C285.739 159.856 286.499 159.682 287.419 159.703C288.297 159.724 289.098 159.935 289.821 160.338C290.55 160.74 291.159 161.312 291.65 162.054C292.145 162.79 292.481 163.675 292.66 164.708ZM285.333 164.536C285.464 165.298 285.681 165.961 285.983 166.526C286.285 167.091 286.677 167.531 287.157 167.847C287.638 168.163 288.215 168.329 288.889 168.345C289.556 168.361 290.077 168.221 290.452 167.925C290.833 167.629 291.077 167.204 291.185 166.649C291.293 166.093 291.281 165.435 291.149 164.673C291.018 163.916 290.803 163.262 290.503 162.708C290.202 162.149 289.812 161.715 289.332 161.404C288.852 161.094 288.273 160.931 287.593 160.915C286.592 160.891 285.913 161.2 285.557 161.841C285.208 162.483 285.133 163.381 285.333 164.536ZM298.858 159.973C300.059 160.001 301.087 160.431 301.943 161.262C302.799 162.093 303.368 163.325 303.651 164.959C303.837 166.038 303.83 166.941 303.629 167.666C303.428 168.392 303.061 168.935 302.529 169.296C302.002 169.658 301.335 169.829 300.526 169.81C300.017 169.798 299.557 169.721 299.148 169.579C298.738 169.437 298.376 169.25 298.062 169.019C297.748 168.787 297.477 168.536 297.249 168.266L297.144 168.264C297.2 168.489 297.268 168.761 297.346 169.079C297.43 169.398 297.493 169.675 297.534 169.912L298.209 173.809L296.741 173.774L294.363 160.039L295.567 160.068L296.003 161.475L296.074 161.477C296.211 161.193 296.394 160.935 296.623 160.705C296.85 160.469 297.145 160.286 297.508 160.157C297.875 160.022 298.325 159.96 298.858 159.973ZM298.814 161.179C298.146 161.164 297.629 161.278 297.263 161.522C296.903 161.767 296.673 162.141 296.573 162.644C296.473 163.142 296.483 163.772 296.603 164.534L296.651 164.811C296.79 165.614 296.995 166.294 297.267 166.852C297.544 167.411 297.913 167.839 298.373 168.138C298.839 168.436 299.42 168.593 300.117 168.61C300.715 168.624 301.185 168.477 301.529 168.169C301.872 167.861 302.091 167.426 302.187 166.865C302.287 166.298 302.273 165.645 302.145 164.906C301.951 163.786 301.575 162.892 301.016 162.223C300.461 161.549 299.727 161.201 298.814 161.179ZM318.007 160.597L319.651 170.088L318.456 170.06L318.014 168.721L317.935 168.719C317.793 169.044 317.583 169.315 317.306 169.532C317.028 169.75 316.7 169.909 316.321 170.009C315.948 170.116 315.539 170.164 315.094 170.153C314.333 170.135 313.673 169.999 313.116 169.744C312.558 169.49 312.104 169.105 311.752 168.591C311.407 168.077 311.165 167.421 311.027 166.625L309.95 160.407L311.427 160.442L312.485 166.555C312.622 167.346 312.906 167.942 313.337 168.344C313.767 168.739 314.354 168.945 315.098 168.963C315.813 168.98 316.358 168.86 316.734 168.605C317.115 168.349 317.355 167.967 317.454 167.457C317.551 166.942 317.535 166.309 317.405 165.559L316.54 160.562L318.007 160.597ZM325.586 160.603C326.787 160.631 327.815 161.061 328.671 161.892C329.527 162.722 330.096 163.955 330.379 165.589C330.566 166.668 330.558 167.571 330.357 168.296C330.156 169.022 329.79 169.565 329.257 169.926C328.73 170.288 328.063 170.459 327.255 170.44C326.745 170.428 326.285 170.351 325.876 170.209C325.466 170.067 325.104 169.88 324.79 169.648C324.476 169.417 324.205 169.166 323.977 168.896L323.872 168.894C323.928 169.119 323.996 169.391 324.074 169.709C324.158 170.027 324.221 170.305 324.262 170.542L324.937 174.439L323.469 174.404L321.092 160.669L322.295 160.698L322.731 162.105L322.802 162.107C322.939 161.823 323.122 161.565 323.351 161.335C323.578 161.099 323.873 160.916 324.236 160.787C324.603 160.651 325.053 160.59 325.586 160.603ZM325.542 161.809C324.874 161.793 324.357 161.908 323.991 162.152C323.631 162.397 323.401 162.771 323.301 163.274C323.201 163.772 323.211 164.402 323.331 165.164L323.379 165.441C323.518 166.243 323.723 166.924 323.995 167.482C324.272 168.041 324.641 168.469 325.101 168.767C325.567 169.066 326.148 169.223 326.846 169.24C327.443 169.254 327.913 169.107 328.257 168.799C328.6 168.491 328.819 168.056 328.915 167.495C329.015 166.928 329.001 166.275 328.873 165.536C328.679 164.416 328.303 163.522 327.744 162.853C327.189 162.179 326.455 161.831 325.542 161.809ZM335.264 161.003L336.828 161.04L339.908 166.598C340.087 166.924 340.255 167.239 340.412 167.541C340.569 167.838 340.711 168.123 340.84 168.397C340.969 168.67 341.079 168.934 341.17 169.189L341.232 169.191C341.264 168.904 341.315 168.529 341.387 168.065C341.457 167.595 341.538 167.117 341.628 166.63L342.688 161.178L344.261 161.215L341.955 172.002C341.833 172.58 341.66 173.082 341.436 173.508C341.219 173.934 340.919 174.258 340.537 174.479C340.156 174.705 339.667 174.812 339.07 174.798C338.794 174.791 338.548 174.768 338.331 174.728C338.115 174.695 337.928 174.656 337.769 174.612L337.569 173.46C337.703 173.492 337.863 173.521 338.048 173.549C338.24 173.576 338.435 173.592 338.634 173.597C338.997 173.606 339.299 173.544 339.538 173.411C339.785 173.285 339.982 173.094 340.131 172.839C340.279 172.584 340.392 172.279 340.471 171.924L340.767 170.603L335.264 161.003ZM354.92 166.176C355.055 166.955 355.073 167.648 354.974 168.255C354.875 168.863 354.669 169.372 354.355 169.785C354.042 170.197 353.629 170.509 353.117 170.721C352.61 170.928 352.011 171.023 351.32 171.007C350.676 170.992 350.065 170.868 349.488 170.636C348.916 170.398 348.398 170.064 347.932 169.633C347.473 169.203 347.082 168.679 346.759 168.062C346.442 167.445 346.216 166.747 346.081 165.967C345.901 164.928 345.927 164.049 346.159 163.33C346.389 162.605 346.802 162.06 347.398 161.695C347.999 161.324 348.759 161.149 349.679 161.171C350.557 161.191 351.358 161.403 352.081 161.805C352.81 162.207 353.419 162.78 353.91 163.521C354.405 164.257 354.741 165.142 354.92 166.176ZM347.593 166.003C347.725 166.765 347.941 167.428 348.243 167.993C348.545 168.558 348.937 168.999 349.417 169.315C349.898 169.631 350.475 169.797 351.149 169.813C351.816 169.828 352.338 169.688 352.712 169.392C353.093 169.097 353.337 168.671 353.445 168.116C353.553 167.561 353.541 166.902 353.409 166.14C353.278 165.384 353.063 164.729 352.763 164.176C352.462 163.617 352.072 163.182 351.592 162.872C351.112 162.561 350.533 162.398 349.853 162.382C348.852 162.359 348.173 162.667 347.817 163.309C347.468 163.95 347.393 164.848 347.593 166.003ZM364.575 161.694L366.218 171.185L365.023 171.157L364.582 169.819L364.503 169.817C364.36 170.141 364.151 170.412 363.873 170.63C363.596 170.848 363.268 171.007 362.888 171.107C362.516 171.213 362.107 171.261 361.662 171.251C360.9 171.233 360.241 171.096 359.683 170.842C359.126 170.587 358.672 170.203 358.32 169.688C357.974 169.174 357.732 168.519 357.595 167.722L356.518 161.504L357.994 161.539L359.053 167.653C359.19 168.444 359.474 169.04 359.905 169.441C360.335 169.836 360.922 170.043 361.666 170.06C362.38 170.077 362.926 169.958 363.301 169.702C363.683 169.447 363.923 169.064 364.022 168.555C364.119 168.04 364.103 167.407 363.973 166.656L363.108 161.66L364.575 161.694ZM372.005 161.697C372.198 161.701 372.402 161.718 372.617 161.746C372.831 161.768 373.023 161.798 373.193 161.837L373.239 163.166C373.074 163.122 372.893 163.086 372.696 163.058C372.498 163.031 372.315 163.015 372.145 163.011C371.758 163.002 371.406 163.071 371.087 163.219C370.773 163.361 370.512 163.573 370.305 163.856C370.096 164.133 369.953 164.472 369.877 164.872C369.799 165.267 369.803 165.71 369.888 166.201L370.77 171.293L369.302 171.258L367.659 161.767L368.872 161.795L369.333 163.548L369.394 163.55C369.532 163.202 369.717 162.888 369.948 162.606C370.178 162.318 370.463 162.092 370.802 161.927C371.147 161.763 371.548 161.686 372.005 161.697ZM170.373 174.568L169.129 187.148L167.627 187.113L163.604 178.532C163.485 178.287 163.37 178.043 163.258 177.799C163.151 177.549 163.049 177.314 162.952 177.093C162.854 176.867 162.771 176.669 162.701 176.501C162.636 176.327 162.587 176.196 162.554 176.109C162.557 176.195 162.556 176.322 162.55 176.489C162.549 176.655 162.542 176.848 162.527 177.066C162.518 177.284 162.5 177.517 162.473 177.763C162.451 178.01 162.425 178.259 162.393 178.512L161.389 186.966L159.886 186.931L154.285 174.189L155.84 174.226L159.28 182.216C159.396 182.483 159.506 182.747 159.61 183.008C159.718 183.264 159.817 183.514 159.905 183.757C160 184.001 160.088 184.239 160.169 184.471C160.25 184.702 160.327 184.929 160.4 185.149C160.39 184.924 160.388 184.691 160.393 184.45C160.397 184.203 160.403 183.953 160.412 183.7C160.426 183.447 160.443 183.192 160.463 182.934C160.488 182.676 160.516 182.417 160.548 182.159L161.499 174.359L163.036 174.396L166.814 182.368C166.943 182.641 167.066 182.911 167.182 183.178C167.298 183.446 167.405 183.707 167.501 183.962C167.603 184.212 167.694 184.452 167.775 184.684C167.861 184.911 167.939 185.125 168.009 185.328C168.001 185.046 167.999 184.75 168.004 184.44C168.009 184.129 168.02 183.805 168.037 183.466C168.06 183.127 168.087 182.777 168.117 182.415L168.809 174.532L170.373 174.568ZM176.307 177.71C177.455 177.737 178.351 178.011 178.996 178.532C179.64 179.053 180.059 179.871 180.252 180.985L181.369 187.437L180.306 187.412L179.782 186.002L179.711 186.001C179.502 186.341 179.271 186.626 179.019 186.855C178.766 187.079 178.457 187.247 178.091 187.36C177.731 187.466 177.272 187.513 176.716 187.5C176.13 187.486 175.591 187.373 175.099 187.16C174.613 186.947 174.203 186.633 173.868 186.216C173.54 185.801 173.321 185.278 173.212 184.649C173.048 183.702 173.303 182.983 173.976 182.493C174.65 182.003 175.762 181.753 177.312 181.744L178.96 181.714L178.86 181.133C178.718 180.314 178.44 179.735 178.026 179.398C177.611 179.06 177.079 178.884 176.429 178.868C175.925 178.856 175.457 178.917 175.025 179.051C174.593 179.184 174.189 179.344 173.813 179.531L173.176 178.429C173.572 178.22 174.037 178.044 174.573 177.902C175.108 177.759 175.686 177.695 176.307 177.71ZM179.118 182.726L177.661 182.753C176.469 182.77 175.656 182.944 175.223 183.273C174.789 183.602 174.627 184.078 174.735 184.702C174.829 185.244 175.065 185.65 175.444 185.917C175.823 186.185 176.288 186.325 176.838 186.338C177.693 186.358 178.353 186.141 178.817 185.686C179.281 185.231 179.431 184.536 179.27 183.601L179.118 182.726ZM185.841 187.542L184.374 187.508L182.041 174.033L183.508 174.067L185.841 187.542ZM190.392 187.649L188.925 187.615L186.592 174.14L188.059 174.175L190.392 187.649ZM195.511 178.145C196.331 178.164 197.065 178.36 197.713 178.732C198.36 179.103 198.895 179.616 199.318 180.27C199.739 180.918 200.024 181.673 200.173 182.533L200.328 183.425L193.676 183.268C193.887 184.383 194.315 185.238 194.961 185.834C195.606 186.43 196.424 186.739 197.414 186.763C198.023 186.777 198.553 186.735 199.002 186.636C199.452 186.538 199.91 186.387 200.377 186.186L200.596 187.45C200.147 187.652 199.69 187.797 199.227 187.884C198.77 187.971 198.216 188.006 197.566 187.991C196.64 187.969 195.8 187.765 195.045 187.38C194.294 186.988 193.666 186.427 193.161 185.697C192.655 184.966 192.312 184.078 192.131 183.033C191.954 182.011 191.974 181.132 192.19 180.395C192.412 179.653 192.804 179.087 193.367 178.698C193.935 178.309 194.65 178.125 195.511 178.145ZM195.697 179.322C194.918 179.304 194.341 179.541 193.965 180.032C193.589 180.523 193.435 181.218 193.503 182.117L198.599 182.237C198.496 181.671 198.319 181.172 198.069 180.741C197.824 180.304 197.506 179.963 197.113 179.718C196.72 179.467 196.248 179.335 195.697 179.322ZM206.517 187.029C206.757 187.035 207 187.02 207.245 186.986C207.489 186.951 207.686 186.907 207.834 186.853L208.028 187.97C207.871 188.041 207.644 188.099 207.349 188.144C207.059 188.189 206.771 188.208 206.484 188.201C205.974 188.189 205.496 188.092 205.05 187.909C204.604 187.72 204.218 187.412 203.893 186.984C203.574 186.557 203.35 185.971 203.221 185.226L202.247 179.597L200.876 179.565L200.754 178.864L202.036 178.333L202.259 176.286L203.138 176.307L203.519 178.506L206.339 178.573L206.534 179.699L203.714 179.632L204.681 185.218C204.784 185.812 204.998 186.26 205.325 186.561C205.657 186.862 206.054 187.018 206.517 187.029ZM222.503 188.389L219.834 182.824C219.716 182.585 219.603 182.352 219.494 182.126C219.389 181.893 219.29 181.672 219.195 181.463C219.106 181.248 219.022 181.051 218.944 180.871C218.871 180.685 218.809 180.525 218.756 180.392L218.695 180.39C218.694 180.523 218.69 180.681 218.681 180.864C218.671 181.042 218.655 181.238 218.633 181.45C218.617 181.662 218.598 181.886 218.574 182.121C218.55 182.351 218.517 182.583 218.476 182.817L217.636 188.274L215.993 188.236L211.696 178.682L213.207 178.717L215.503 183.989C215.656 184.338 215.804 184.684 215.945 185.026C216.09 185.363 216.219 185.682 216.329 185.984C216.445 186.28 216.536 186.538 216.603 186.758L216.673 186.76C216.684 186.616 216.692 186.444 216.698 186.243C216.71 186.042 216.722 185.829 216.736 185.605C216.755 185.376 216.777 185.149 216.802 184.926C216.827 184.696 216.854 184.481 216.883 184.281L217.706 178.823L219.279 178.86L221.943 184.391C222.078 184.67 222.213 184.961 222.347 185.263C222.487 185.565 222.617 185.859 222.736 186.143C222.854 186.422 222.947 186.672 223.014 186.892L223.085 186.893C223.074 186.698 223.076 186.456 223.09 186.169C223.105 185.882 223.123 185.566 223.145 185.222C223.173 184.877 223.203 184.527 223.235 184.172L223.733 178.965L225.218 179L224.199 188.429L222.503 188.389ZM228.437 179.093L230.08 188.585L228.622 188.55L226.978 179.059L228.437 179.093ZM227.111 175.526C227.351 175.532 227.569 175.615 227.766 175.774C227.968 175.929 228.097 176.167 228.153 176.491C228.208 176.808 228.161 177.043 228.012 177.195C227.869 177.347 227.678 177.42 227.437 177.414C227.186 177.408 226.961 177.325 226.764 177.165C226.573 177.006 226.45 176.767 226.395 176.449C226.339 176.126 226.38 175.891 226.518 175.745C226.661 175.593 226.859 175.52 227.111 175.526ZM236.109 187.726C236.35 187.732 236.592 187.718 236.837 187.683C237.082 187.649 237.278 187.605 237.427 187.551L237.62 188.668C237.463 188.739 237.237 188.797 236.941 188.841C236.652 188.886 236.363 188.905 236.076 188.899C235.567 188.887 235.089 188.789 234.643 188.606C234.196 188.417 233.81 188.109 233.485 187.682C233.166 187.255 232.942 186.669 232.813 185.924L231.839 180.295L230.468 180.263L230.347 179.561L231.629 179.031L231.852 176.983L232.731 177.004L233.111 179.204L235.932 179.27L236.127 180.396L233.306 180.329L234.273 185.915C234.376 186.51 234.591 186.958 234.917 187.258C235.249 187.56 235.647 187.716 236.109 187.726ZM238.713 175.368L239.41 179.395C239.45 179.626 239.484 179.86 239.514 180.096C239.542 180.327 239.558 180.54 239.563 180.736L239.66 180.738C239.801 180.408 240.004 180.134 240.27 179.916C240.54 179.692 240.862 179.527 241.234 179.421C241.606 179.309 242.011 179.258 242.451 179.269C243.224 179.287 243.889 179.423 244.447 179.678C245.01 179.933 245.464 180.317 245.81 180.831C246.162 181.345 246.407 182.007 246.547 182.815L247.618 188.998L246.177 188.964L245.123 182.876C244.986 182.085 244.699 181.489 244.262 181.088C243.831 180.687 243.237 180.477 242.482 180.459C241.767 180.443 241.22 180.565 240.839 180.826C240.463 181.082 240.227 181.467 240.129 181.982C240.037 182.498 240.057 183.131 240.186 183.881L241.046 188.843L239.587 188.809L237.254 175.334L238.713 175.368ZM265.559 189.421L263.837 189.38L254.994 178.581L254.923 178.579C254.99 178.863 255.066 179.186 255.153 179.551C255.238 179.909 255.322 180.293 255.405 180.704C255.492 181.108 255.573 181.521 255.646 181.943L256.905 189.217L255.517 189.184L253.325 176.523L255.038 176.564L263.85 187.328L263.911 187.329C263.864 187.127 263.8 186.841 263.719 186.471C263.636 186.095 263.549 185.694 263.458 185.266C263.371 184.833 263.296 184.431 263.232 184.062L261.962 176.727L263.368 176.76L265.559 189.421ZM270.914 181.837C271.787 181.857 272.571 182.022 273.266 182.332C273.961 182.636 274.532 183.069 274.979 183.632C275.432 184.194 275.727 184.871 275.864 185.662C276.014 186.528 275.953 187.271 275.682 187.891C275.409 188.506 274.945 188.975 274.289 189.299C273.632 189.617 272.806 189.764 271.81 189.741C271.142 189.725 270.512 189.653 269.918 189.524C269.323 189.395 268.81 189.21 268.378 188.97L268.141 187.602C268.613 187.866 269.166 188.08 269.801 188.244C270.436 188.409 271.041 188.498 271.615 188.511C272.265 188.527 272.816 188.439 273.267 188.249C273.723 188.052 274.05 187.75 274.247 187.34C274.45 186.925 274.496 186.4 274.386 185.765C274.24 184.922 273.864 184.267 273.258 183.798C272.656 183.324 271.791 183.073 270.66 183.047C270.297 183.038 269.904 183.058 269.48 183.105C269.057 183.153 268.71 183.208 268.441 183.271L267.621 182.777L267.084 176.848L273.472 176.998L273.7 178.315L268.56 178.193L268.896 182.005C269.11 181.964 269.389 181.924 269.733 181.887C270.075 181.843 270.469 181.826 270.914 181.837ZM280.456 187.719L280.604 187.921C280.572 188.34 280.515 188.787 280.434 189.263C280.359 189.738 280.266 190.213 280.156 190.688C280.052 191.168 279.94 191.617 279.82 192.034L278.731 192.008C278.774 191.549 278.809 191.064 278.837 190.553C278.867 190.048 278.885 189.548 278.893 189.054C278.906 188.554 278.905 188.097 278.892 187.683L280.456 187.719ZM290.538 183.688C290.716 184.715 290.796 185.632 290.778 186.436C290.76 187.241 290.629 187.919 290.386 188.471C290.144 189.023 289.778 189.44 289.29 189.721C288.801 189.997 288.179 190.127 287.424 190.109C286.469 190.086 285.634 189.811 284.918 189.282C284.208 188.754 283.614 188.001 283.135 187.024C282.662 186.041 282.306 184.862 282.068 183.488C281.834 182.137 281.771 180.98 281.879 180.017C281.991 179.048 282.312 178.311 282.843 177.806C283.373 177.295 284.148 177.051 285.167 177.075C286.134 177.098 286.975 177.377 287.692 177.911C288.408 178.44 289.002 179.196 289.476 180.178C289.948 181.155 290.303 182.325 290.538 183.688ZM283.536 183.523C283.74 184.701 284 185.684 284.318 186.474C284.635 187.263 285.03 187.859 285.502 188.261C285.979 188.657 286.549 188.863 287.211 188.879C287.873 188.895 288.372 188.714 288.709 188.336C289.052 187.959 289.247 187.38 289.292 186.599C289.344 185.819 289.267 184.837 289.062 183.653C288.861 182.493 288.603 181.521 288.286 180.737C287.969 179.947 287.574 179.352 287.102 178.949C286.629 178.542 286.055 178.33 285.382 178.314C284.708 178.298 284.204 178.484 283.868 178.873C283.532 179.256 283.341 179.838 283.296 180.619C283.255 181.394 283.335 182.362 283.536 183.523ZM300.836 183.93C301.014 184.958 301.094 185.874 301.076 186.679C301.057 187.483 300.927 188.162 300.684 188.714C300.441 189.266 300.076 189.682 299.588 189.964C299.099 190.24 298.477 190.369 297.721 190.351C296.766 190.329 295.931 190.053 295.215 189.525C294.506 188.996 293.911 188.243 293.433 187.266C292.96 186.283 292.604 185.105 292.366 183.731C292.132 182.38 292.069 181.223 292.176 180.259C292.288 179.29 292.61 178.553 293.141 178.048C293.671 177.538 294.446 177.294 295.465 177.318C296.431 177.341 297.273 177.62 297.99 178.154C298.705 178.682 299.3 179.438 299.773 180.421C300.246 181.398 300.6 182.568 300.836 183.93ZM293.833 183.765C294.037 184.943 294.298 185.927 294.615 186.716C294.933 187.506 295.328 188.101 295.8 188.504C296.277 188.9 296.846 189.106 297.508 189.122C298.17 189.137 298.67 188.956 299.007 188.579C299.35 188.202 299.544 187.623 299.59 186.842C299.641 186.061 299.565 185.079 299.36 183.896C299.159 182.735 298.9 181.763 298.584 180.98C298.266 180.19 297.871 179.594 297.399 179.192C296.926 178.784 296.353 178.572 295.679 178.557C295.006 178.541 294.501 178.727 294.166 179.116C293.83 179.499 293.639 180.081 293.593 180.862C293.552 181.637 293.632 182.605 293.833 183.765ZM311.134 184.173C311.311 185.201 311.391 186.117 311.373 186.921C311.355 187.726 311.224 188.404 310.982 188.956C310.739 189.508 310.373 189.925 309.886 190.207C309.397 190.483 308.774 190.612 308.019 190.594C307.064 190.572 306.229 190.296 305.513 189.767C304.803 189.239 304.209 188.486 303.731 187.509C303.257 186.526 302.901 185.348 302.664 183.974C302.43 182.623 302.366 181.465 302.474 180.502C302.586 179.533 302.908 178.796 303.439 178.291C303.969 177.78 304.743 177.537 305.762 177.561C306.729 177.584 307.57 177.862 308.287 178.397C309.003 178.925 309.597 179.681 310.071 180.664C310.544 181.641 310.898 182.811 311.134 184.173ZM304.131 184.008C304.335 185.186 304.595 186.169 304.913 186.959C305.231 187.748 305.625 188.344 306.097 188.746C306.574 189.143 307.144 189.349 307.806 189.364C308.468 189.38 308.967 189.199 309.304 188.822C309.648 188.445 309.842 187.866 309.888 187.085C309.939 186.304 309.862 185.322 309.657 184.138C309.457 182.978 309.198 182.006 308.881 181.222C308.564 180.433 308.169 179.837 307.697 179.435C307.224 179.027 306.65 178.815 305.977 178.799C305.303 178.783 304.799 178.97 304.463 179.359C304.127 179.742 303.936 180.324 303.891 181.105C303.85 181.88 303.93 182.848 304.131 184.008ZM314.317 189.673C314.247 189.269 314.297 188.986 314.467 188.823C314.637 188.654 314.865 188.573 315.152 188.58C315.45 188.587 315.717 188.68 315.952 188.858C316.186 189.03 316.338 189.318 316.408 189.722C316.477 190.121 316.425 190.41 316.252 190.59C316.078 190.764 315.842 190.847 315.543 190.84C315.256 190.834 314.997 190.738 314.767 190.555C314.536 190.365 314.386 190.071 314.317 189.673Z" fill="#0B0B0E"/>
<rect width="178.794" height="50.3984" rx="9.5997" transform="matrix(0.999722 0.0235606 0.170589 0.985342 151.804 210.487)" fill="#FF9900"/>
<path d="M210.468 231.209L208.208 242.924L206.806 242.891L200.455 230.973L201.914 231.007L206.066 238.857C206.235 239.172 206.388 239.473 206.525 239.761C206.668 240.049 206.797 240.325 206.914 240.591C207.031 240.857 207.138 241.114 207.236 241.363C207.247 241.117 207.266 240.862 207.291 240.6C207.316 240.332 207.35 240.057 207.393 239.773C207.436 239.485 207.487 239.183 207.547 238.867L208.991 231.174L210.468 231.209ZM213.616 234.229L215.15 243.087L213.789 243.055L212.255 234.197L213.616 234.229ZM212.378 230.899C212.603 230.905 212.806 230.982 212.99 231.131C213.178 231.275 213.299 231.498 213.351 231.8C213.402 232.096 213.359 232.315 213.22 232.457C213.086 232.598 212.908 232.667 212.683 232.661C212.448 232.656 212.239 232.578 212.055 232.429C211.877 232.28 211.762 232.057 211.711 231.761C211.659 231.459 211.697 231.24 211.826 231.104C211.959 230.962 212.143 230.894 212.378 230.899ZM219.768 234.213C220.533 234.231 221.218 234.413 221.823 234.76C222.427 235.107 222.926 235.586 223.321 236.196C223.714 236.801 223.98 237.505 224.119 238.308L224.263 239.141L218.055 238.994C218.252 240.035 218.651 240.833 219.254 241.389C219.857 241.945 220.62 242.234 221.544 242.256C222.113 242.27 222.607 242.23 223.026 242.138C223.446 242.046 223.874 241.906 224.309 241.718L224.514 242.898C224.094 243.086 223.668 243.221 223.236 243.302C222.809 243.383 222.292 243.417 221.685 243.403C220.822 243.382 220.037 243.192 219.332 242.832C218.632 242.467 218.046 241.943 217.574 241.261C217.102 240.579 216.782 239.75 216.613 238.775C216.448 237.821 216.466 237.001 216.668 236.313C216.875 235.621 217.241 235.092 217.766 234.729C218.297 234.366 218.964 234.194 219.768 234.213ZM219.942 235.312C219.214 235.295 218.676 235.515 218.325 235.974C217.974 236.433 217.83 237.081 217.894 237.92L222.65 238.032C222.553 237.504 222.388 237.038 222.155 236.636C221.927 236.228 221.629 235.91 221.263 235.681C220.896 235.447 220.455 235.324 219.942 235.312ZM234.444 243.526L231.952 238.332C231.842 238.109 231.737 237.892 231.635 237.68C231.537 237.463 231.444 237.257 231.356 237.062C231.272 236.861 231.194 236.677 231.122 236.509C231.053 236.336 230.995 236.187 230.946 236.062L230.889 236.061C230.888 236.184 230.884 236.332 230.876 236.503C230.866 236.669 230.851 236.851 230.831 237.05C230.817 237.248 230.798 237.457 230.776 237.676C230.754 237.89 230.723 238.107 230.685 238.326L229.9 243.419L228.367 243.383L224.357 234.466L225.767 234.499L227.909 239.42C228.053 239.745 228.19 240.068 228.322 240.387C228.458 240.702 228.578 241 228.681 241.281C228.789 241.557 228.874 241.798 228.937 242.004L229.002 242.005C229.012 241.871 229.019 241.711 229.025 241.523C229.036 241.335 229.048 241.137 229.061 240.928C229.078 240.714 229.099 240.502 229.122 240.294C229.145 240.079 229.17 239.879 229.198 239.692L229.966 234.598L231.434 234.633L233.92 239.795C234.047 240.055 234.173 240.327 234.298 240.609C234.428 240.891 234.549 241.165 234.661 241.43C234.771 241.69 234.857 241.923 234.92 242.129L234.986 242.13C234.976 241.947 234.978 241.722 234.991 241.454C235.005 241.186 235.022 240.891 235.042 240.57C235.068 240.249 235.096 239.922 235.126 239.59L235.591 234.731L236.977 234.763L236.026 243.563L234.444 243.526ZM255.961 232.281L254.801 244.022L253.398 243.989L249.643 235.98C249.533 235.752 249.425 235.524 249.321 235.296C249.22 235.063 249.125 234.843 249.035 234.637C248.944 234.426 248.866 234.241 248.8 234.084C248.74 233.922 248.694 233.8 248.664 233.719C248.667 233.799 248.665 233.917 248.66 234.073C248.659 234.228 248.652 234.408 248.639 234.612C248.63 234.815 248.613 235.032 248.588 235.262C248.568 235.493 248.543 235.726 248.513 235.961L247.576 243.852L246.173 243.819L240.946 231.927L242.397 231.961L245.608 239.418C245.716 239.668 245.819 239.914 245.915 240.158C246.017 240.397 246.109 240.629 246.192 240.857C246.28 241.084 246.362 241.306 246.438 241.523C246.513 241.739 246.585 241.95 246.653 242.156C246.644 241.946 246.642 241.729 246.647 241.503C246.65 241.273 246.656 241.039 246.664 240.804C246.678 240.568 246.694 240.329 246.712 240.088C246.736 239.847 246.762 239.606 246.791 239.366L247.679 232.085L249.114 232.119L252.64 239.56C252.76 239.815 252.874 240.067 252.983 240.317C253.091 240.566 253.191 240.81 253.281 241.048C253.376 241.281 253.461 241.506 253.537 241.722C253.617 241.933 253.69 242.134 253.755 242.323C253.748 242.06 253.746 241.783 253.75 241.494C253.755 241.204 253.765 240.901 253.781 240.585C253.802 240.269 253.827 239.942 253.856 239.605L254.501 232.246L255.961 232.281ZM261.332 235.209C262.403 235.234 263.24 235.49 263.841 235.976C264.443 236.462 264.833 237.226 265.013 238.266L266.056 244.287L265.064 244.264L264.575 242.948L264.509 242.947C264.313 243.264 264.098 243.53 263.863 243.744C263.627 243.954 263.338 244.11 262.997 244.215C262.66 244.315 262.232 244.358 261.713 244.346C261.166 244.333 260.663 244.227 260.204 244.029C259.751 243.83 259.368 243.537 259.056 243.148C258.749 242.76 258.545 242.272 258.443 241.685C258.29 240.801 258.528 240.131 259.156 239.673C259.785 239.216 260.823 238.983 262.269 238.974L263.808 238.946L263.714 238.404C263.582 237.639 263.322 237.099 262.936 236.784C262.549 236.469 262.052 236.304 261.445 236.29C260.975 236.279 260.539 236.336 260.136 236.46C259.732 236.585 259.355 236.734 259.004 236.909L258.41 235.88C258.779 235.685 259.213 235.521 259.713 235.388C260.213 235.255 260.752 235.195 261.332 235.209ZM263.955 239.891L262.596 239.915C261.482 239.932 260.724 240.094 260.32 240.401C259.915 240.708 259.764 241.152 259.864 241.734C259.952 242.241 260.173 242.619 260.526 242.869C260.88 243.119 261.314 243.25 261.828 243.262C262.626 243.281 263.241 243.078 263.674 242.653C264.107 242.229 264.248 241.58 264.097 240.707L263.955 239.891ZM270.062 244.382L268.693 244.349L266.515 231.773L267.885 231.805L270.062 244.382ZM274.142 244.478L272.773 244.445L270.595 231.869L271.965 231.901L274.142 244.478ZM278.752 235.603C279.517 235.621 280.202 235.804 280.806 236.15C281.411 236.497 281.91 236.976 282.305 237.586C282.698 238.191 282.964 238.895 283.103 239.698L283.247 240.531L277.039 240.384C277.236 241.425 277.635 242.223 278.238 242.779C278.841 243.335 279.604 243.624 280.528 243.646C281.096 243.66 281.591 243.62 282.01 243.528C282.43 243.436 282.858 243.296 283.293 243.108L283.497 244.288C283.078 244.476 282.652 244.611 282.22 244.692C281.793 244.773 281.276 244.807 280.669 244.793C279.805 244.772 279.021 244.582 278.316 244.222C277.616 243.857 277.03 243.333 276.558 242.651C276.086 241.969 275.766 241.141 275.597 240.165C275.432 239.211 275.45 238.391 275.652 237.703C275.859 237.011 276.225 236.483 276.75 236.119C277.281 235.756 277.948 235.584 278.752 235.603ZM278.925 236.702C278.198 236.685 277.659 236.905 277.309 237.364C276.958 237.823 276.814 238.471 276.878 239.31L281.634 239.422C281.537 238.894 281.372 238.428 281.139 238.026C280.911 237.618 280.613 237.3 280.247 237.071C279.88 236.837 279.439 236.714 278.925 236.702ZM288.856 243.891C289.08 243.896 289.306 243.883 289.535 243.85C289.764 243.818 289.947 243.777 290.085 243.727L290.266 244.769C290.119 244.836 289.908 244.89 289.632 244.931C289.362 244.973 289.093 244.991 288.825 244.985C288.349 244.974 287.903 244.883 287.487 244.712C287.07 244.536 286.71 244.248 286.407 243.849C286.109 243.45 285.9 242.903 285.78 242.208L284.87 236.955L283.591 236.924L283.478 236.27L284.674 235.775L284.882 233.864L285.702 233.883L286.058 235.936L288.69 235.998L288.872 237.049L286.24 236.987L287.142 242.2C287.238 242.755 287.439 243.173 287.743 243.454C288.053 243.735 288.424 243.881 288.856 243.891Z" fill="white"/>
</svg>
